<svg width="1064" height="1064" viewBox="0 0 1064 1064" fill="none" xmlns="http://www.w3.org/2000/svg">
<g clip-path="url(#clip0)">
<path d="M958.98 0H104.17C46.6385 0 0 46.6385 0 104.17V958.98C0 1016.51 46.6385 1063.15 104.17 1063.15H958.98C1016.51 1063.15 1063.15 1016.51 1063.15 958.98V104.17C1063.15 46.6385 1016.51 0 958.98 0Z" fill="#262626"/>
<path d="M531.57 1028.42C805.973 1028.42 1028.42 805.973 1028.42 531.57C1028.42 257.167 805.973 34.72 531.57 34.72C257.167 34.72 34.72 257.167 34.72 531.57C34.72 805.973 257.167 1028.42 531.57 1028.42Z" fill="black"/>
<path d="M533.38 956.09C767.737 956.09 957.72 766.107 957.72 531.75C957.72 297.394 767.737 107.41 533.38 107.41C299.023 107.41 109.04 297.394 109.04 531.75C109.04 766.107 299.023 956.09 533.38 956.09Z" fill="white"/>
<path d="M533.38 956.09C767.737 956.09 957.72 766.107 957.72 531.75C957.72 297.394 767.737 107.41 533.38 107.41C299.023 107.41 109.04 297.394 109.04 531.75C109.04 766.107 299.023 956.09 533.38 956.09Z" fill="white"/>
<path d="M927.76 531.75C927.76 749.56 751.19 926.14 533.38 926.14C315.57 926.14 139 749.56 139 531.75" stroke="black" stroke-width="5" stroke-miterlimit="10"/>
<path d="M904.84 398.92C920.058 441.55 927.812 486.485 927.76 531.75C927.76 749.56 751.19 926.14 533.38 926.14C315.57 926.14 139 749.56 139 531.75C138.94 481.842 148.378 432.379 166.81 386" stroke="#6CB83E" stroke-width="36" stroke-miterlimit="10"/>
<path d="M538.47 107.41V177.19" stroke="black" stroke-width="5" stroke-miterlimit="10"/>
<path d="M533.38 889.02V956.09" stroke="black" stroke-width="5" stroke-miterlimit="10"/>
<path d="M957.72 531.75L911.49 531.67" stroke="black" stroke-width="5" stroke-miterlimit="10"/>
<path d="M178.23 530.33L109.04 531.75" stroke="black" stroke-width="5" stroke-miterlimit="10"/>
<path d="M840.72 239.17L807.32 271.15" stroke="black" stroke-width="3" stroke-miterlimit="10"/>
<path d="M223.48 241.88L257.86 270.84" stroke="black" stroke-width="3" stroke-miterlimit="10"/>
<path d="M852.41 811.54L810.38 785.87" stroke="black" stroke-width="3" stroke-miterlimit="10"/>
<path d="M203.52 798.7L238.12 769.02" stroke="black" stroke-width="3" stroke-miterlimit="10"/>
<path d="M708.03 144.91L695.49 165.45" stroke="black" stroke-width="3" stroke-miterlimit="10"/>
<path d="M925.66 369.67L890.04 386.04" stroke="black" stroke-width="3" stroke-miterlimit="10"/>
<path d="M934.68 675.85L907.03 664.14" stroke="black" stroke-width="3" stroke-miterlimit="10"/>
<path d="M717.17 914.33L701.76 899.23" stroke="black" stroke-width="3" stroke-miterlimit="10"/>
<path d="M315.65 896.04L332.87 871.43" stroke="black" stroke-width="3" stroke-miterlimit="10"/>
<path d="M138.36 687.05L165.85 675.07" stroke="black" stroke-width="3" stroke-miterlimit="10"/>
<path d="M145.79 358.75L176.17 367.66" stroke="black" stroke-width="3" stroke-miterlimit="10"/>
<path d="M539.132 179.257C530.197 179.257 523.767 187.312 523.767 202.136C523.902 216.689 529.791 224.745 538.388 224.745C548.068 224.745 553.686 216.486 553.686 201.527C553.686 187.515 548.338 179.257 539.132 179.257ZM538.726 183.86C544.954 183.86 547.661 190.967 547.661 201.798C547.661 213.034 544.751 220.142 538.726 220.142C533.311 220.142 529.791 213.643 529.791 202.204C529.791 190.223 533.582 183.86 538.726 183.86Z" fill="black"/>
<path d="M766.69 283.411H745.638L742.795 304.531C744.42 304.328 746.383 304.125 748.955 304.125C757.687 304.125 761.545 308.118 761.545 313.804C761.613 319.693 756.739 323.349 751.189 323.349C747.127 323.349 743.54 321.995 741.712 320.912L740.223 325.447C742.389 326.801 746.383 328.155 751.189 328.155C760.733 328.155 767.57 321.724 767.57 313.127C767.57 307.645 764.727 303.786 761.275 301.891C758.567 300.199 755.25 299.522 751.798 299.522C750.173 299.522 749.226 299.589 748.21 299.725L749.903 288.421H766.69V283.411Z" fill="black"/>
<path d="M853.955 542.9H859.708V498.901H854.632L845.02 504.046L846.17 508.581L853.819 504.452H853.955V542.9ZM890.487 498.157C881.552 498.157 875.121 506.212 875.121 521.036C875.257 535.589 881.146 543.645 889.742 543.645C899.422 543.645 905.04 535.386 905.04 520.427C905.04 506.415 899.693 498.157 890.487 498.157ZM890.081 502.76C896.308 502.76 899.016 509.867 899.016 520.698C899.016 531.934 896.105 539.042 890.081 539.042C884.665 539.042 881.146 532.543 881.146 521.104C881.146 509.123 884.936 502.76 890.081 502.76Z" fill="black"/>
<path d="M733.145 771.15H738.898V727.152H733.822L724.21 732.296L725.36 736.831L733.009 732.702H733.145V771.15ZM781.184 727.152H760.133L757.29 748.271C758.914 748.068 760.877 747.865 763.449 747.865C772.181 747.865 776.04 751.858 776.04 757.544C776.107 763.433 771.234 767.089 765.683 767.089C761.622 767.089 758.034 765.735 756.206 764.652L754.717 769.187C756.883 770.541 760.877 771.895 765.683 771.895C775.227 771.895 782.064 765.464 782.064 756.867C782.064 751.385 779.221 747.526 775.769 745.631C773.061 743.939 769.744 743.262 766.292 743.262C764.668 743.262 763.72 743.329 762.705 743.465L764.397 732.161H781.184V727.152Z" fill="black"/>
<path d="M505.807 866.13V861.189H486.11V861.053L489.562 857.804C498.835 848.869 504.724 842.303 504.724 834.18C504.724 827.885 500.731 821.387 491.254 821.387C486.245 821.387 481.845 823.35 478.867 825.854L480.762 830.051C482.793 828.359 486.11 826.328 490.103 826.328C496.669 826.328 498.768 830.457 498.768 834.925C498.768 841.559 493.623 847.244 482.387 857.94L477.716 862.475V866.13H505.807ZM527.177 821.387C518.242 821.387 511.811 829.442 511.811 844.266C511.947 858.819 517.836 866.875 526.432 866.875C536.112 866.875 541.73 858.616 541.73 843.657C541.73 829.645 536.383 821.387 527.177 821.387ZM526.771 825.99C532.998 825.99 535.706 833.097 535.706 843.928C535.706 855.164 532.795 862.272 526.771 862.272C521.355 862.272 517.836 855.773 517.836 844.334C517.836 832.353 521.626 825.99 526.771 825.99Z" fill="black"/>
<path d="M245.713 752.026C247.879 753.448 252.211 755.005 257.153 755.005C267.645 755.005 273.195 748.845 273.195 741.805C273.127 735.645 268.795 731.584 263.38 730.569V730.433C268.728 728.47 271.503 724.612 271.503 720.009C271.503 714.661 267.577 709.517 258.913 709.517C254.174 709.517 249.707 711.209 247.338 712.901L248.962 717.234C250.857 715.88 254.242 714.323 257.762 714.323C263.245 714.323 265.478 717.437 265.478 720.957C265.478 726.169 259.996 728.402 255.663 728.402H252.347V732.87H255.663C261.417 732.87 266.968 735.51 267.035 741.67C267.103 745.393 264.666 750.199 257.085 750.199C252.888 750.199 249.03 748.506 247.338 747.491L245.713 752.026ZM295.377 709.517C286.442 709.517 280.011 717.572 280.011 732.396C280.147 746.949 286.036 755.005 294.632 755.005C304.312 755.005 309.93 746.746 309.93 731.787C309.93 717.775 304.583 709.517 295.377 709.517ZM294.971 714.12C301.198 714.12 303.906 721.227 303.906 732.058C303.906 743.294 300.995 750.402 294.971 750.402C289.555 750.402 286.036 743.903 286.036 732.464C286.036 720.483 289.826 714.12 294.971 714.12Z" fill="black"/>
<path d="M184.433 537.596C186.599 539.018 190.931 540.575 195.873 540.575C206.365 540.575 211.915 534.415 211.915 527.375C211.847 521.215 207.515 517.154 202.1 516.138V516.003C207.448 514.04 210.223 510.182 210.223 505.579C210.223 500.231 206.297 495.087 197.632 495.087C192.894 495.087 188.427 496.779 186.058 498.471L187.682 502.804C189.577 501.45 192.962 499.893 196.482 499.893C201.965 499.893 204.198 503.007 204.198 506.527C204.198 511.739 198.716 513.972 194.383 513.972H191.067V518.44H194.383C200.137 518.44 205.688 521.08 205.755 527.24C205.823 530.963 203.386 535.769 195.805 535.769C191.608 535.769 187.75 534.076 186.058 533.061L184.433 537.596ZM245.604 495.831H224.552L221.71 516.951C223.334 516.748 225.297 516.545 227.869 516.545C236.601 516.545 240.46 520.538 240.46 526.224C240.527 532.113 235.654 535.769 230.103 535.769C226.042 535.769 222.454 534.415 220.626 533.332L219.137 537.867C221.303 539.221 225.297 540.575 230.103 540.575C239.647 540.575 246.484 534.144 246.484 525.547C246.484 520.065 243.641 516.206 240.189 514.311C237.481 512.619 234.164 511.942 230.712 511.942C229.088 511.942 228.14 512.009 227.125 512.145L228.817 500.841H245.604V495.831Z" fill="black"/>
<path d="M297.016 308V295.951H303.176V291.348H297.016V264.001H290.585L270.955 292.093V295.951H291.398V308H297.016ZM276.98 291.348V291.213L287.742 276.253C288.961 274.223 290.044 272.327 291.398 269.755H291.601C291.465 272.057 291.398 274.358 291.398 276.66V291.348H276.98ZM322.447 263.257C313.512 263.257 307.081 271.312 307.081 286.136C307.217 300.689 313.106 308.745 321.702 308.745C331.382 308.745 337 300.486 337 285.527C337 271.515 331.653 263.257 322.447 263.257ZM322.041 267.86C328.268 267.86 330.976 274.967 330.976 285.798C330.976 297.034 328.065 304.142 322.041 304.142C316.625 304.142 313.106 297.643 313.106 286.204C313.106 274.223 316.896 267.86 322.041 267.86Z" fill="black"/>
<path d="M440.738 618.924L443.661 628.65H452.937L441.131 590.758H429.887L418.362 628.65H427.189L429.887 618.924H440.738ZM431.124 612.515L433.373 604.475C433.991 602.283 434.553 599.416 435.116 597.167H435.228C435.79 599.416 436.465 602.227 437.139 604.475L439.501 612.515H431.124ZM458.011 590.758V628.65H466.557V590.758H458.011ZM473.986 628.65H482.476V613.752H485.006C488.547 613.808 490.178 615.045 491.246 619.823C492.314 624.49 493.27 627.526 493.832 628.65H502.602C501.872 627.188 500.747 622.241 499.566 617.912C498.611 614.426 497.149 611.953 494.507 610.885V610.716C497.767 609.535 501.197 606.218 501.197 601.44C501.197 597.954 499.96 595.255 497.655 593.456C494.956 591.32 491.021 590.477 485.399 590.477C480.789 590.477 476.741 590.814 473.986 591.264V628.65ZM482.476 597.167C483.094 596.998 484.275 596.886 486.355 596.886C490.29 596.886 492.651 598.685 492.651 602.114C492.651 605.431 490.122 607.568 485.849 607.568H482.476V597.167ZM505.85 626.851C507.987 628.032 512.259 629.212 516.588 629.212C526.989 629.212 531.824 623.815 531.824 617.462C531.824 612.121 528.732 608.636 522.042 606.162C517.094 604.307 515.014 603.239 515.014 600.821C515.014 598.91 516.813 597.167 520.524 597.167C524.178 597.167 526.933 598.235 528.395 598.966L530.306 592.107C528.057 591.039 524.965 590.196 520.636 590.196C511.753 590.196 506.3 595.087 506.3 601.552C506.3 607.062 510.46 610.547 516.757 612.796C521.311 614.37 523.11 615.719 523.11 618.081C523.11 620.554 521.03 622.185 517.094 622.185C513.44 622.185 509.842 621.004 507.593 619.823L505.85 626.851ZM537.673 628.65H546.162V615.045C546.949 615.213 547.961 615.27 549.086 615.27C554.146 615.27 558.475 613.977 561.398 611.278C563.703 609.198 564.884 605.993 564.884 602.283C564.884 598.572 563.309 595.424 560.836 593.513C558.306 591.489 554.539 590.477 549.254 590.477C544.026 590.477 540.315 590.814 537.673 591.264V628.65ZM546.162 597.279C546.781 597.111 547.961 596.998 549.648 596.998C553.977 596.998 556.394 599.078 556.394 602.564C556.394 606.387 553.583 608.692 549.03 608.692C547.736 608.692 546.893 608.636 546.162 608.467V597.279ZM592.884 605.656H578.942V597.785H593.728V590.758H570.396V628.65H594.515V621.623H578.942V612.627H592.884V605.656ZM622.916 605.656H608.973V597.785H623.759V590.758H600.428V628.65H624.546V621.623H608.973V612.627H622.916V605.656ZM630.403 628.481C632.483 628.762 635.688 629.044 640.129 629.044C647.55 629.044 653.678 627.469 657.67 624.152C661.268 621.06 663.91 616.057 663.91 608.804C663.91 602.114 661.437 597.448 657.501 594.524C653.903 591.826 649.181 590.477 641.928 590.477C637.656 590.477 633.551 590.814 630.403 591.32V628.481ZM638.949 597.392C639.679 597.223 640.973 597.054 642.828 597.054C650.249 597.054 654.859 601.215 654.859 609.085C654.859 618.137 649.743 622.41 641.928 622.353C640.916 622.353 639.679 622.353 638.949 622.185V597.392Z" fill="black"/>
<path d="M494.352 641.832C491.808 645.576 488.928 651.912 488.88 661.272C488.88 670.488 491.808 676.872 494.352 680.616H499.44C496.752 676.104 494.592 669.72 494.592 661.272C494.592 652.68 496.752 646.248 499.44 641.832H494.352ZM504.022 675H511.126V661.32C511.126 660.696 511.174 660.024 511.414 659.448C511.846 658.296 512.95 656.856 514.822 656.856C517.174 656.856 518.23 658.872 518.23 661.8V675H525.334V661.272C525.334 660.648 525.43 659.928 525.574 659.4C526.102 658.008 527.254 656.856 528.982 656.856C531.334 656.856 532.438 658.824 532.438 662.232V675H539.542V661.176C539.542 654.12 536.134 650.952 531.622 650.952C529.894 650.952 528.454 651.384 527.158 652.104C526.006 652.776 524.998 653.736 524.086 654.984H523.99C522.982 652.536 520.63 650.952 517.558 650.952C513.574 650.952 511.462 653.16 510.454 654.696H510.31L510.022 651.528H503.83C503.926 653.64 504.022 656.088 504.022 659.016V675ZM548.007 676.872L558.279 642.072H553.431L543.159 676.872H548.007ZM559.865 673.848C561.641 674.808 564.377 675.528 567.449 675.528C574.169 675.528 577.577 672.312 577.577 667.896C577.529 664.488 575.705 662.184 571.241 660.648C568.361 659.64 567.449 659.064 567.449 657.912C567.449 656.76 568.457 656.04 570.233 656.04C572.201 656.04 574.265 656.808 575.321 657.384L576.569 652.344C575.129 651.624 572.729 650.952 569.993 650.952C564.185 650.952 560.441 654.264 560.441 658.68C560.393 661.464 562.265 664.104 567.161 665.736C569.849 666.648 570.569 667.224 570.569 668.472C570.569 669.672 569.657 670.392 567.449 670.392C565.289 670.392 562.505 669.48 561.161 668.664L559.865 673.848ZM585.862 680.616C588.406 676.824 591.286 670.536 591.334 661.224C591.334 651.816 588.406 645.528 585.862 641.832H580.774C583.462 646.296 585.622 652.68 585.622 661.176C585.622 669.672 583.462 676.152 580.774 680.616H585.862Z" fill="black"/>
</g>
<defs>
<clipPath id="clip0">
<rect width="1063.15" height="1063.15" fill="white"/>
</clipPath>
</defs>
</svg>
