<svg xmlns="http://www.w3.org/2000/svg" xmlns:xlink="http://www.w3.org/1999/xlink" viewBox="0 0 1063.15 1063.15"><defs><style>.cls-1{fill:#fff;}.cls-2{fill:#262626;}.cls-3{clip-path:url(#clip-path);}.cls-4,.cls-5,.cls-6{fill:none;stroke-miterlimit:10;}.cls-4,.cls-6{stroke:#000;}.cls-4{stroke-width:5px;}.cls-5{stroke:#6cb83e;stroke-width:36px;}.cls-6{stroke-width:3px;}.cls-7{font-size:67.69px;font-family:MyriadPro-Regular, Myriad Pro;}.cls-8{font-size:56.22px;}.cls-8,.cls-9{font-family:MyriadPro-Bold, Myriad Pro;font-weight:700;}.cls-9{font-size:48px;}.cls-10{letter-spacing:-0.03em;}.cls-11{letter-spacing:-0.01em;}.cls-12{letter-spacing:0em;}</style><clipPath id="clip-path"><circle class="cls-1" cx="533.38" cy="531.75" r="424.34"/></clipPath></defs><g id="Layer_2" data-name="Layer 2"><g id="Layer_1-2" data-name="Layer 1"><g id="INDIKATOR_1" data-name="INDIKATOR 1"><rect class="cls-2" width="1063.15" height="1063.15" rx="104.17"/><circle cx="531.57" cy="531.57" r="496.85"/><circle class="cls-1" cx="533.38" cy="531.75" r="424.34"/><circle class="cls-1" cx="533.38" cy="531.75" r="424.34"/><g class="cls-3"><path class="cls-4" d="M927.76,531.75c0,217.81-176.57,394.39-394.38,394.39S139,749.56,139,531.75"/><path class="cls-5" d="M904.84,398.92a393.75,393.75,0,0,1,22.92,132.83c0,217.81-176.57,394.39-394.38,394.39S139,749.56,139,531.75A393.36,393.36,0,0,1,166.81,386"/></g><line class="cls-4" x1="538.47" y1="107.41" x2="538.47" y2="177.19"/><line class="cls-4" x1="533.38" y1="889.02" x2="533.38" y2="956.09"/><line class="cls-4" x1="957.72" y1="531.75" x2="911.49" y2="531.67"/><line class="cls-4" x1="178.23" y1="530.33" x2="109.04" y2="531.75"/><line class="cls-6" x1="840.72" y1="239.17" x2="807.32" y2="271.15"/><line class="cls-6" x1="223.48" y1="241.88" x2="257.86" y2="270.84"/><line class="cls-6" x1="852.41" y1="811.54" x2="810.38" y2="785.87"/><line class="cls-6" x1="203.52" y1="798.7" x2="238.12" y2="769.02"/><line class="cls-6" x1="708.03" y1="144.91" x2="695.49" y2="165.45"/><line class="cls-6" x1="925.66" y1="369.67" x2="890.04" y2="386.04"/><line class="cls-6" x1="934.68" y1="675.85" x2="907.03" y2="664.14"/><line class="cls-6" x1="717.17" y1="914.33" x2="701.76" y2="899.23"/><line class="cls-6" x1="315.65" y1="896.04" x2="332.87" y2="871.43"/><line class="cls-6" x1="138.36" y1="687.05" x2="165.85" y2="675.07"/><line class="cls-6" x1="145.79" y1="358.75" x2="176.17" y2="367.66"/><text class="cls-7" transform="translate(521.33 234.69)">0</text><text class="cls-7" transform="translate(737.38 338.1)">40</text><text class="cls-7" transform="translate(837.98 553.59)">80</text><text class="cls-7" transform="translate(717.17 781.84)">120</text><text class="cls-7" transform="translate(474.67 876.82)">160</text><text class="cls-7" transform="translate(242.87 764.95)">200</text><text class="cls-7" transform="translate(181.59 550.52)">240</text><text class="cls-7" transform="translate(269.94 318.69)">280</text><text class="cls-8" transform="translate(417.35 636.87)">AIRSPEED</text><text class="cls-9" transform="translate(452.75 688)">(KN<tspan class="cls-10" x="77.66" y="0">O</tspan><tspan class="cls-11" x="110.73" y="0">T</tspan><tspan class="cls-12" x="136.61" y="0">S)</tspan></text></g></g></g></svg>