<svg width="1064" height="1064" viewBox="0 0 1064 1064" fill="none" xmlns="http://www.w3.org/2000/svg">
<path d="M958.98 0H104.17C46.6385 0 0 46.6385 0 104.17V958.98C0 1016.51 46.6385 1063.15 104.17 1063.15H958.98C1016.51 1063.15 1063.15 1016.51 1063.15 958.98V104.17C1063.15 46.6385 1016.51 0 958.98 0Z" fill="#262626"/>
<path d="M531.57 1028.42C805.973 1028.42 1028.42 805.973 1028.42 531.57C1028.42 257.167 805.973 34.72 531.57 34.72C257.167 34.72 34.72 257.167 34.72 531.57C34.72 805.973 257.167 1028.42 531.57 1028.42Z" fill="black"/>
<path d="M533.38 956.09C767.737 956.09 957.72 766.107 957.72 531.75C957.72 297.394 767.737 107.41 533.38 107.41C299.023 107.41 109.04 297.394 109.04 531.75C109.04 766.107 299.023 956.09 533.38 956.09Z" fill="white"/>
<path d="M533.38 956.09C767.737 956.09 957.72 766.107 957.72 531.75C957.72 297.394 767.737 107.41 533.38 107.41C299.023 107.41 109.04 297.394 109.04 531.75C109.04 766.107 299.023 956.09 533.38 956.09Z" fill="white"/>
<path d="M927.76 531.75C927.76 749.56 751.19 926.14 533.38 926.14C315.57 926.14 139 749.56 139 531.75" stroke="black" stroke-width="5" stroke-miterlimit="10"/>
<path d="M904.84 398.92C920.058 441.55 927.812 486.485 927.76 531.75C927.76 749.56 751.19 926.14 533.38 926.14C315.57 926.14 139 749.56 139 531.75C138.94 481.842 148.378 432.379 166.81 386" stroke="#6CB83E" stroke-width="36" stroke-miterlimit="10"/>
<path d="M538.47 107.41V177.19" stroke="black" stroke-width="5" stroke-miterlimit="10"/>
<path d="M533.38 889.02V956.09" stroke="black" stroke-width="5" stroke-miterlimit="10"/>
<path d="M957.72 531.75L911.49 531.67" stroke="black" stroke-width="5" stroke-miterlimit="10"/>
<path d="M178.23 530.33L109.04 531.75" stroke="black" stroke-width="5" stroke-miterlimit="10"/>
<path d="M840.72 239.17L807.32 271.15" stroke="black" stroke-width="3" stroke-miterlimit="10"/>
<path d="M223.48 241.88L257.86 270.84" stroke="black" stroke-width="3" stroke-miterlimit="10"/>
<path d="M852.41 811.54L810.38 785.87" stroke="black" stroke-width="3" stroke-miterlimit="10"/>
<path d="M203.52 798.7L238.12 769.02" stroke="black" stroke-width="3" stroke-miterlimit="10"/>
<path d="M708.03 144.91L695.49 165.45" stroke="black" stroke-width="3" stroke-miterlimit="10"/>
<path d="M925.66 369.67L890.04 386.04" stroke="black" stroke-width="3" stroke-miterlimit="10"/>
<path d="M934.68 675.85L907.03 664.14" stroke="black" stroke-width="3" stroke-miterlimit="10"/>
<path d="M717.17 914.33L701.76 899.23" stroke="black" stroke-width="3" stroke-miterlimit="10"/>
<path d="M315.65 896.04L332.87 871.43" stroke="black" stroke-width="3" stroke-miterlimit="10"/>
<path d="M138.36 687.05L165.85 675.07" stroke="black" stroke-width="3" stroke-miterlimit="10"/>
<path d="M145.79 358.75L176.17 367.66" stroke="black" stroke-width="3" stroke-miterlimit="10"/>
<path d="M538.365 197C529.43 197 523 205.055 523 219.879C523.135 234.432 529.024 242.488 537.621 242.488C547.301 242.488 552.919 234.229 552.919 219.27C552.919 205.258 547.571 197 538.365 197ZM537.959 201.603C544.187 201.603 546.894 208.71 546.894 219.541C546.894 230.777 543.984 237.885 537.959 237.885C532.544 237.885 529.024 231.386 529.024 219.947C529.024 207.966 532.815 201.603 537.959 201.603Z" fill="black"/>
<path d="M766.69 283.411H745.638L742.795 304.531C744.42 304.328 746.383 304.125 748.955 304.125C757.687 304.125 761.545 308.118 761.545 313.804C761.613 319.693 756.739 323.349 751.189 323.349C747.127 323.349 743.54 321.995 741.712 320.912L740.223 325.447C742.389 326.801 746.383 328.155 751.189 328.155C760.733 328.155 767.57 321.724 767.57 313.127C767.57 307.645 764.727 303.786 761.275 301.891C758.567 300.199 755.25 299.522 751.798 299.522C750.173 299.522 749.226 299.589 748.21 299.725L749.903 288.421H766.69V283.411Z" fill="black"/>
<path d="M830.935 553.743H836.688V509.744H831.612L822 514.889L823.15 519.424L830.799 515.295H830.935V553.743ZM867.467 509C858.532 509 852.101 517.055 852.101 531.879C852.237 546.432 858.126 554.488 866.722 554.488C876.402 554.488 882.02 546.229 882.02 531.27C882.02 517.258 876.673 509 867.467 509ZM867.061 513.603C873.288 513.603 875.996 520.71 875.996 531.541C875.996 542.777 873.085 549.885 867.061 549.885C861.645 549.885 858.126 543.386 858.126 531.947C858.126 519.966 861.916 513.603 867.061 513.603Z" fill="black"/>
<path d="M733.145 771.15H738.898V727.152H733.822L724.21 732.296L725.36 736.831L733.009 732.702H733.145V771.15ZM781.184 727.152H760.133L757.29 748.271C758.914 748.068 760.877 747.865 763.449 747.865C772.181 747.865 776.04 751.858 776.04 757.544C776.107 763.433 771.234 767.089 765.683 767.089C761.622 767.089 758.034 765.735 756.206 764.652L754.717 769.187C756.883 770.541 760.877 771.895 765.683 771.895C775.227 771.895 782.064 765.464 782.064 756.867C782.064 751.385 779.221 747.526 775.769 745.631C773.061 743.939 769.744 743.262 766.292 743.262C764.668 743.262 763.72 743.329 762.705 743.465L764.397 732.161H781.184V727.152Z" fill="black"/>
<path d="M528.091 870.743V865.802H508.394V865.666L511.846 862.417C521.119 853.482 527.008 846.916 527.008 838.793C527.008 832.498 523.015 826 513.538 826C508.529 826 504.129 827.963 501.151 830.467L503.046 834.664C505.077 832.972 508.394 830.941 512.387 830.941C518.953 830.941 521.052 835.07 521.052 839.538C521.052 846.172 515.907 851.857 504.671 862.553L500 867.088V870.743H528.091ZM549.461 826C540.526 826 534.095 834.055 534.095 848.879C534.231 863.432 540.12 871.488 548.716 871.488C558.396 871.488 564.014 863.229 564.014 848.27C564.014 834.258 558.667 826 549.461 826ZM549.055 830.603C555.282 830.603 557.99 837.71 557.99 848.541C557.99 859.777 555.079 866.885 549.055 866.885C543.639 866.885 540.12 860.386 540.12 848.947C540.12 836.966 543.91 830.603 549.055 830.603Z" fill="black"/>
<path d="M440.738 618.924L443.661 628.65H452.937L441.131 590.758H429.887L418.362 628.65H427.189L429.887 618.924H440.738ZM431.124 612.515L433.373 604.475C433.991 602.283 434.553 599.416 435.116 597.167H435.228C435.79 599.416 436.465 602.227 437.139 604.475L439.501 612.515H431.124ZM458.011 590.758V628.65H466.557V590.758H458.011ZM473.986 628.65H482.476V613.752H485.006C488.547 613.808 490.178 615.045 491.246 619.823C492.314 624.49 493.27 627.526 493.832 628.65H502.602C501.872 627.188 500.747 622.241 499.566 617.912C498.611 614.426 497.149 611.953 494.507 610.885V610.716C497.767 609.535 501.197 606.218 501.197 601.44C501.197 597.954 499.96 595.255 497.655 593.456C494.956 591.32 491.021 590.477 485.399 590.477C480.789 590.477 476.741 590.814 473.986 591.264V628.65ZM482.476 597.167C483.094 596.998 484.275 596.886 486.355 596.886C490.29 596.886 492.651 598.685 492.651 602.114C492.651 605.431 490.122 607.568 485.849 607.568H482.476V597.167ZM505.85 626.851C507.987 628.032 512.259 629.212 516.588 629.212C526.989 629.212 531.824 623.815 531.824 617.462C531.824 612.121 528.732 608.636 522.042 606.162C517.094 604.307 515.014 603.239 515.014 600.821C515.014 598.91 516.813 597.167 520.524 597.167C524.178 597.167 526.933 598.235 528.395 598.966L530.306 592.107C528.057 591.039 524.965 590.196 520.636 590.196C511.753 590.196 506.3 595.087 506.3 601.552C506.3 607.062 510.46 610.547 516.757 612.796C521.311 614.37 523.11 615.719 523.11 618.081C523.11 620.554 521.03 622.185 517.094 622.185C513.44 622.185 509.842 621.004 507.593 619.823L505.85 626.851ZM537.673 628.65H546.162V615.045C546.949 615.213 547.961 615.27 549.086 615.27C554.146 615.27 558.475 613.977 561.398 611.278C563.703 609.198 564.884 605.993 564.884 602.283C564.884 598.572 563.309 595.424 560.836 593.513C558.306 591.489 554.539 590.477 549.254 590.477C544.026 590.477 540.315 590.814 537.673 591.264V628.65ZM546.162 597.279C546.781 597.111 547.961 596.998 549.648 596.998C553.977 596.998 556.394 599.078 556.394 602.564C556.394 606.387 553.583 608.692 549.03 608.692C547.736 608.692 546.893 608.636 546.162 608.467V597.279ZM592.884 605.656H578.942V597.785H593.728V590.758H570.396V628.65H594.515V621.623H578.942V612.627H592.884V605.656ZM622.916 605.656H608.973V597.785H623.759V590.758H600.428V628.65H624.546V621.623H608.973V612.627H622.916V605.656ZM630.403 628.481C632.483 628.762 635.688 629.044 640.129 629.044C647.55 629.044 653.678 627.469 657.67 624.152C661.268 621.06 663.91 616.057 663.91 608.804C663.91 602.114 661.437 597.448 657.501 594.524C653.903 591.826 649.181 590.477 641.928 590.477C637.656 590.477 633.551 590.814 630.403 591.32V628.481ZM638.949 597.392C639.679 597.223 640.973 597.054 642.828 597.054C650.249 597.054 654.859 601.215 654.859 609.085C654.859 618.137 649.743 622.41 641.928 622.353C640.916 622.353 639.679 622.353 638.949 622.185V597.392Z" fill="black"/>
<path d="M494.352 641.832C491.808 645.576 488.928 651.912 488.88 661.272C488.88 670.488 491.808 676.872 494.352 680.616H499.44C496.752 676.104 494.592 669.72 494.592 661.272C494.592 652.68 496.752 646.248 499.44 641.832H494.352ZM504.022 675H511.126V661.32C511.126 660.696 511.174 660.024 511.414 659.448C511.846 658.296 512.95 656.856 514.822 656.856C517.174 656.856 518.23 658.872 518.23 661.8V675H525.334V661.272C525.334 660.648 525.43 659.928 525.574 659.4C526.102 658.008 527.254 656.856 528.982 656.856C531.334 656.856 532.438 658.824 532.438 662.232V675H539.542V661.176C539.542 654.12 536.134 650.952 531.622 650.952C529.894 650.952 528.454 651.384 527.158 652.104C526.006 652.776 524.998 653.736 524.086 654.984H523.99C522.982 652.536 520.63 650.952 517.558 650.952C513.574 650.952 511.462 653.16 510.454 654.696H510.31L510.022 651.528H503.83C503.926 653.64 504.022 656.088 504.022 659.016V675ZM548.007 676.872L558.279 642.072H553.431L543.159 676.872H548.007ZM559.865 673.848C561.641 674.808 564.377 675.528 567.449 675.528C574.169 675.528 577.577 672.312 577.577 667.896C577.529 664.488 575.705 662.184 571.241 660.648C568.361 659.64 567.449 659.064 567.449 657.912C567.449 656.76 568.457 656.04 570.233 656.04C572.201 656.04 574.265 656.808 575.321 657.384L576.569 652.344C575.129 651.624 572.729 650.952 569.993 650.952C564.185 650.952 560.441 654.264 560.441 658.68C560.393 661.464 562.265 664.104 567.161 665.736C569.849 666.648 570.569 667.224 570.569 668.472C570.569 669.672 569.657 670.392 567.449 670.392C565.289 670.392 562.505 669.48 561.161 668.664L559.865 673.848ZM585.862 680.616C588.406 676.824 591.286 670.536 591.334 661.224C591.334 651.816 588.406 645.528 585.862 641.832H580.774C583.462 646.296 585.622 652.68 585.622 661.176C585.622 669.672 583.462 676.152 580.774 680.616H585.862Z" fill="black"/>
</svg>
