<svg width="1064" height="1064" viewBox="0 0 1064 1064" fill="none" xmlns="http://www.w3.org/2000/svg">
<g clip-path="url(#clip0)">
<path d="M958.98 0H104.17C46.6385 0 0 46.6385 0 104.17V958.98C0 1016.51 46.6385 1063.15 104.17 1063.15H958.98C1016.51 1063.15 1063.15 1016.51 1063.15 958.98V104.17C1063.15 46.6385 1016.51 0 958.98 0Z" fill="#262626"/>
<path d="M533.38 1028.6C807.783 1028.6 1030.23 806.153 1030.23 531.75C1030.23 257.347 807.783 34.9 533.38 34.9C258.977 34.9 36.53 257.347 36.53 531.75C36.53 806.153 258.977 1028.6 533.38 1028.6Z" fill="black"/>
<path d="M533.38 956.09C767.737 956.09 957.72 766.107 957.72 531.75C957.72 297.394 767.737 107.41 533.38 107.41C299.023 107.41 109.04 297.394 109.04 531.75C109.04 766.107 299.023 956.09 533.38 956.09Z" fill="white"/>
<path d="M531.57 162.42V107.23" stroke="#231F20" stroke-width="7" stroke-miterlimit="10"/>
<path d="M531.57 955.91V900.73" stroke="#231F20" stroke-width="7" stroke-miterlimit="10"/>
<path d="M900.73 531.57H955.91" stroke="#231F20" stroke-width="7" stroke-miterlimit="10"/>
<path d="M107.23 531.57H162.42" stroke="#231F20" stroke-width="7" stroke-miterlimit="10"/>
<path d="M804.37 804.37L831.63 831.63" stroke="#231F20" stroke-width="7" stroke-miterlimit="10"/>
<path d="M231.52 231.52L258.78 258.78" stroke="#231F20" stroke-width="7" stroke-miterlimit="10"/>
<path d="M804.37 258.78L831.63 231.52" stroke="#231F20" stroke-width="7" stroke-miterlimit="10"/>
<path d="M231.52 831.63L258.78 804.37" stroke="#231F20" stroke-width="7" stroke-miterlimit="10"/>
<path d="M594.01 925.78L597.96 950.69" stroke="#231F20" stroke-width="4" stroke-miterlimit="10"/>
<path d="M465.19 112.46L469.14 137.36" stroke="#231F20" stroke-width="4" stroke-miterlimit="10"/>
<path d="M654.91 911.16L662.7 935.15" stroke="#231F20" stroke-width="4" stroke-miterlimit="10"/>
<path d="M400.45 128L408.24 151.99" stroke="#231F20" stroke-width="4" stroke-miterlimit="10"/>
<path d="M712.77 887.2L724.22 909.66" stroke="#231F20" stroke-width="4" stroke-miterlimit="10"/>
<path d="M338.93 153.48L350.38 175.95" stroke="#231F20" stroke-width="4" stroke-miterlimit="10"/>
<path d="M766.17 854.47L781 874.87" stroke="#231F20" stroke-width="4" stroke-miterlimit="10"/>
<path d="M282.15 188.28L296.98 208.68" stroke="#231F20" stroke-width="4" stroke-miterlimit="10"/>
<path d="M813.8 813.8L831.63 831.63" stroke="#231F20" stroke-width="4" stroke-miterlimit="10"/>
<path d="M231.52 231.52L249.35 249.35" stroke="#231F20" stroke-width="4" stroke-miterlimit="10"/>
<path d="M854.47 766.17L874.87 781" stroke="#231F20" stroke-width="4" stroke-miterlimit="10"/>
<path d="M188.28 282.15L208.68 296.98" stroke="#231F20" stroke-width="4" stroke-miterlimit="10"/>
<path d="M887.2 712.77L909.66 724.22" stroke="#231F20" stroke-width="4" stroke-miterlimit="10"/>
<path d="M153.48 338.93L175.95 350.38" stroke="#231F20" stroke-width="4" stroke-miterlimit="10"/>
<path d="M911.16 654.91L935.15 662.7" stroke="#231F20" stroke-width="4" stroke-miterlimit="10"/>
<path d="M128 400.45L151.99 408.24" stroke="#231F20" stroke-width="4" stroke-miterlimit="10"/>
<path d="M925.78 594.01L950.69 597.96" stroke="#231F20" stroke-width="4" stroke-miterlimit="10"/>
<path d="M112.46 465.19L137.36 469.14" stroke="#231F20" stroke-width="4" stroke-miterlimit="10"/>
<path d="M930.7 531.57H955.91" stroke="#231F20" stroke-width="4" stroke-miterlimit="10"/>
<path d="M107.23 531.57H132.45" stroke="#231F20" stroke-width="4" stroke-miterlimit="10"/>
<path d="M925.78 469.14L950.69 465.19" stroke="#231F20" stroke-width="4" stroke-miterlimit="10"/>
<path d="M112.46 597.96L137.36 594.01" stroke="#231F20" stroke-width="4" stroke-miterlimit="10"/>
<path d="M911.16 408.24L935.15 400.45" stroke="#231F20" stroke-width="4" stroke-miterlimit="10"/>
<path d="M128 662.7L151.99 654.91" stroke="#231F20" stroke-width="4" stroke-miterlimit="10"/>
<path d="M887.2 350.38L909.66 338.93" stroke="#231F20" stroke-width="4" stroke-miterlimit="10"/>
<path d="M153.48 724.22L175.95 712.77" stroke="#231F20" stroke-width="4" stroke-miterlimit="10"/>
<path d="M854.47 296.98L874.87 282.15" stroke="#231F20" stroke-width="4" stroke-miterlimit="10"/>
<path d="M188.28 781L208.68 766.17" stroke="#231F20" stroke-width="4" stroke-miterlimit="10"/>
<path d="M813.8 249.35L831.63 231.52" stroke="#231F20" stroke-width="4" stroke-miterlimit="10"/>
<path d="M231.52 831.63L249.35 813.8" stroke="#231F20" stroke-width="4" stroke-miterlimit="10"/>
<path d="M766.17 208.68L781 188.28" stroke="#231F20" stroke-width="4" stroke-miterlimit="10"/>
<path d="M282.15 874.87L296.98 854.47" stroke="#231F20" stroke-width="4" stroke-miterlimit="10"/>
<path d="M712.77 175.95L724.22 153.48" stroke="#231F20" stroke-width="4" stroke-miterlimit="10"/>
<path d="M338.93 909.66L350.38 887.2" stroke="#231F20" stroke-width="4" stroke-miterlimit="10"/>
<path d="M654.91 151.99L662.7 128" stroke="#231F20" stroke-width="4" stroke-miterlimit="10"/>
<path d="M400.45 935.15L408.24 911.16" stroke="#231F20" stroke-width="4" stroke-miterlimit="10"/>
<path d="M594.01 137.37L597.96 112.46" stroke="#231F20" stroke-width="4" stroke-miterlimit="10"/>
<path d="M465.19 950.69L469.14 925.78" stroke="#231F20" stroke-width="4" stroke-miterlimit="10"/>
<path d="M536.111 176.507C528.025 176.507 522.205 183.797 522.205 197.213C522.328 210.384 527.657 217.674 535.438 217.674C544.198 217.674 549.282 210.2 549.282 196.662C549.282 183.981 544.443 176.507 536.111 176.507ZM535.744 180.673C541.38 180.673 543.83 187.105 543.83 196.907C543.83 207.076 541.196 213.508 535.744 213.508C530.843 213.508 527.657 207.627 527.657 197.274C527.657 186.431 531.088 180.673 535.744 180.673Z" fill="black"/>
<path d="M792.696 247.901H773.644L771.071 267.014C772.541 266.83 774.318 266.647 776.645 266.647C784.548 266.647 788.04 270.261 788.04 275.407C788.101 280.736 783.69 284.044 778.667 284.044C774.991 284.044 771.745 282.819 770.091 281.839L768.743 285.943C770.703 287.169 774.318 288.394 778.667 288.394C787.305 288.394 793.492 282.574 793.492 274.794C793.492 269.832 790.919 266.34 787.795 264.625C785.344 263.093 782.343 262.481 779.218 262.481C777.748 262.481 776.89 262.542 775.972 262.665L777.503 252.434H792.696V247.901Z" fill="black"/>
<path d="M846.457 547H851.664V507.181H847.07L838.371 511.837L839.412 515.941L846.335 512.204H846.457V547ZM879.519 506.507C871.433 506.507 865.613 513.797 865.613 527.213C865.736 540.384 871.065 547.674 878.845 547.674C887.605 547.674 892.69 540.2 892.69 526.662C892.69 513.981 887.85 506.507 879.519 506.507ZM879.152 510.673C884.787 510.673 887.238 517.105 887.238 526.907C887.238 537.076 884.604 543.508 879.152 543.508C874.251 543.508 871.065 537.627 871.065 527.274C871.065 516.431 874.496 510.673 879.152 510.673Z" fill="black"/>
<path d="M765.457 795H770.664V755.181H766.07L757.371 759.837L758.412 763.941L765.335 760.204H765.457V795ZM808.933 755.181H789.881L787.309 774.294C788.779 774.11 790.555 773.927 792.883 773.927C800.786 773.927 804.278 777.541 804.278 782.687C804.339 788.016 799.928 791.324 794.905 791.324C791.229 791.324 787.982 790.099 786.328 789.119L784.981 793.223C786.941 794.449 790.555 795.674 794.905 795.674C803.542 795.674 809.73 789.854 809.73 782.074C809.73 777.112 807.157 773.62 804.032 771.905C801.582 770.373 798.58 769.761 795.456 769.761C793.986 769.761 793.128 769.822 792.209 769.945L793.741 759.714H808.933V755.181Z" fill="black"/>
<path d="M281.18 795V790.528H263.353V790.405L266.477 787.465C274.87 779.379 280.199 773.436 280.199 766.085C280.199 760.388 276.585 754.507 268.009 754.507C263.475 754.507 259.494 756.284 256.798 758.55L258.513 762.348C260.351 760.817 263.353 758.979 266.967 758.979C272.91 758.979 274.809 762.716 274.809 766.759C274.809 772.763 270.153 777.908 259.984 787.588L255.757 791.692V795H281.18ZM310.933 755.181H291.881L289.309 774.294C290.779 774.11 292.555 773.927 294.883 773.927C302.786 773.927 306.278 777.541 306.278 782.687C306.339 788.016 301.928 791.324 296.905 791.324C293.229 791.324 289.982 790.099 288.328 789.119L286.981 793.223C288.941 794.449 292.555 795.674 296.905 795.674C305.542 795.674 311.73 789.854 311.73 782.074C311.73 777.112 309.157 773.62 306.032 771.905C303.582 770.373 300.58 769.761 297.456 769.761C295.986 769.761 295.128 769.822 294.209 769.945L295.741 759.714H310.933V755.181Z" fill="black"/>
<path d="M530.18 879V874.528H512.353V874.405L515.477 871.465C523.87 863.379 529.199 857.436 529.199 850.085C529.199 844.388 525.585 838.507 517.009 838.507C512.475 838.507 508.494 840.284 505.798 842.55L507.513 846.348C509.351 844.817 512.353 842.979 515.967 842.979C521.91 842.979 523.809 846.716 523.809 850.759C523.809 856.763 519.153 861.908 508.984 871.588L504.757 875.692V879H530.18ZM549.519 838.507C541.433 838.507 535.613 845.797 535.613 859.213C535.736 872.384 541.065 879.674 548.845 879.674C557.605 879.674 562.69 872.2 562.69 858.662C562.69 845.981 557.85 838.507 549.519 838.507ZM549.152 842.673C554.787 842.673 557.238 849.105 557.238 858.907C557.238 869.076 554.604 875.508 549.152 875.508C544.251 875.508 541.065 869.627 541.065 859.274C541.065 848.431 544.496 842.673 549.152 842.673Z" fill="black"/>
<path d="M164.573 544.978C166.533 546.265 170.454 547.674 174.926 547.674C184.421 547.674 189.444 542.099 189.444 535.728C189.383 530.154 185.463 526.478 180.562 525.559V525.436C185.401 523.66 187.913 520.168 187.913 516.002C187.913 511.163 184.36 506.507 176.519 506.507C172.23 506.507 168.187 508.039 166.043 509.57L167.513 513.491C169.229 512.266 172.292 510.857 175.477 510.857C180.439 510.857 182.461 513.675 182.461 516.86C182.461 521.577 177.499 523.599 173.578 523.599H170.576V527.642H173.578C178.785 527.642 183.809 530.031 183.87 535.606C183.931 538.975 181.726 543.324 174.865 543.324C171.066 543.324 167.575 541.793 166.043 540.874L164.573 544.978ZM209.519 506.507C201.433 506.507 195.613 513.797 195.613 527.213C195.736 540.384 201.065 547.674 208.845 547.674C217.605 547.674 222.69 540.2 222.69 526.662C222.69 513.981 217.85 506.507 209.519 506.507ZM209.152 510.673C214.787 510.673 217.238 517.105 217.238 526.907C217.238 537.076 214.604 543.508 209.152 543.508C204.251 543.508 201.065 537.627 201.065 527.274C201.065 516.431 204.496 510.673 209.152 510.673Z" fill="black"/>
<path d="M261.573 285.978C263.533 287.265 267.454 288.674 271.926 288.674C281.421 288.674 286.444 283.099 286.444 276.728C286.383 271.154 282.463 267.478 277.562 266.559V266.436C282.401 264.66 284.913 261.168 284.913 257.002C284.913 252.163 281.36 247.507 273.519 247.507C269.23 247.507 265.187 249.039 263.043 250.57L264.513 254.491C266.229 253.266 269.292 251.857 272.477 251.857C277.439 251.857 279.461 254.675 279.461 257.86C279.461 262.577 274.499 264.599 270.578 264.599H267.576V268.642H270.578C275.785 268.642 280.809 271.031 280.87 276.606C280.931 279.975 278.726 284.324 271.865 284.324C268.066 284.324 264.575 282.793 263.043 281.874L261.573 285.978ZM316.933 248.181H297.881L295.309 267.294C296.779 267.11 298.555 266.927 300.883 266.927C308.786 266.927 312.278 270.541 312.278 275.687C312.339 281.016 307.928 284.324 302.905 284.324C299.229 284.324 295.982 283.099 294.328 282.119L292.981 286.223C294.941 287.449 298.555 288.674 302.905 288.674C311.542 288.674 317.73 282.854 317.73 275.074C317.73 270.112 315.157 266.62 312.032 264.905C309.582 263.373 306.58 262.761 303.456 262.761C301.986 262.761 301.128 262.822 300.209 262.945L301.741 252.714H316.933V248.181Z" fill="black"/>
<path d="M514.164 296.208L518.309 310H531.463L514.722 256.269H498.778L482.435 310H494.951L498.778 296.208H514.164ZM500.531 287.12L503.72 275.72C504.597 272.611 505.394 268.546 506.192 265.357H506.351C507.148 268.546 508.105 272.532 509.061 275.72L512.41 287.12H500.531ZM538.657 310H572.14V299.796H550.775V256.269H538.657V310ZM581.485 310H593.603V266.473H608.271V256.269H566.976V266.473H581.485V310Z" fill="black"/>
<path d="M517.352 328.832C514.808 332.576 511.928 338.912 511.88 348.272C511.88 357.488 514.808 363.872 517.352 367.616H522.44C519.752 363.104 517.592 356.72 517.592 348.272C517.592 339.68 519.752 333.248 522.44 328.832H517.352ZM527.022 362H534.126V348.32C534.126 347.696 534.174 347.024 534.414 346.448C534.846 345.296 535.95 343.856 537.822 343.856C540.174 343.856 541.23 345.872 541.23 348.8V362H548.334V348.272C548.334 347.648 548.43 346.928 548.574 346.4C549.102 345.008 550.254 343.856 551.982 343.856C554.334 343.856 555.438 345.824 555.438 349.232V362H562.542V348.176C562.542 341.12 559.134 337.952 554.622 337.952C552.894 337.952 551.454 338.384 550.158 339.104C549.006 339.776 547.998 340.736 547.086 341.984H546.99C545.982 339.536 543.63 337.952 540.558 337.952C536.574 337.952 534.462 340.16 533.454 341.696H533.31L533.022 338.528H526.83C526.926 340.64 527.022 343.088 527.022 346.016V362ZM572.159 367.616C574.703 363.824 577.583 357.536 577.631 348.224C577.631 338.816 574.703 332.528 572.159 328.832H567.071C569.759 333.296 571.919 339.68 571.919 348.176C571.919 356.672 569.759 363.152 567.071 367.616H572.159Z" fill="black"/>
<path d="M451.86 631.07H448.15L458.88 601.85H462.54L473.27 631.07H469.56L460.82 606.47H460.6L451.86 631.07ZM453.23 619.66H468.23V622.8H453.23V619.66Z" fill="black"/>
<path d="M477.84 631.07V601.85H481.37V627.93H495V631.07H477.84Z" fill="black"/>
<path d="M495 605V601.86H516.92V605H507.73V631.08H504.19V605H495Z" fill="black"/>
<path d="M525.9 601.85V631.07H522.36V601.85H525.9Z" fill="black"/>
<path d="M531.38 605V601.86H553.3V605H544.11V631.08H540.57V605H531.38Z" fill="black"/>
<path d="M578 601.85H581.54V621.2C581.573 623.076 581.085 624.925 580.13 626.54C579.169 628.123 577.783 629.405 576.13 630.24C574.255 631.129 572.205 631.591 570.13 631.591C568.055 631.591 566.005 631.129 564.13 630.24C562.477 629.405 561.091 628.123 560.13 626.54C559.183 624.922 558.698 623.075 558.73 621.2V601.85H562.27V620.91C562.242 622.237 562.567 623.549 563.21 624.71C563.839 625.821 564.773 626.73 565.9 627.33C567.208 627.955 568.64 628.279 570.09 628.279C571.54 628.279 572.972 627.955 574.28 627.33C575.409 626.733 576.343 625.823 576.97 624.71C577.613 623.549 577.938 622.237 577.91 620.91L578 601.85Z" fill="black"/>
<path d="M597.59 631.07H588.59V601.85H598C600.538 601.777 603.05 602.377 605.28 603.59C607.292 604.754 608.909 606.496 609.92 608.59C610.989 611.062 611.54 613.727 611.54 616.42C611.54 619.113 610.989 621.778 609.92 624.25C608.888 626.358 607.238 628.102 605.19 629.25C602.86 630.513 600.239 631.14 597.59 631.07V631.07ZM592.11 627.93H597.37C599.459 628.011 601.532 627.527 603.37 626.53C604.953 625.611 606.201 624.209 606.93 622.53C608.484 618.594 608.484 614.216 606.93 610.28C606.219 608.639 605.013 607.261 603.48 606.34C601.73 605.371 599.749 604.897 597.75 604.97H592.1L592.11 627.93Z" fill="black"/>
<path d="M617.46 631.07V601.85H635.1V605H621V614.87H634.18V618H621V627.93H635.33V631.07H617.46Z" fill="black"/>
<path d="M654.91 645.41H434.53V702.6H654.91V645.41Z" stroke="#231F20" stroke-width="9" stroke-miterlimit="10"/>
</g>
<defs>
<clipPath id="clip0">
<rect width="1063.15" height="1063.15" fill="white"/>
</clipPath>
</defs>
</svg>
