<svg xmlns="http://www.w3.org/2000/svg" viewBox="0 0 1063.15 1063.15"><defs><style>.cls-1{fill:#262626;}.cls-2{fill:#fff;}.cls-3,.cls-4,.cls-8{fill:none;stroke:#231f20;stroke-miterlimit:10;}.cls-3{stroke-width:7px;}.cls-4{stroke-width:4px;}.cls-5{font-size:61.26px;font-family:MyriadPro-Regular, Myriad Pro;}.cls-6{font-size:79.72px;font-family:MyriadPro-Bold, Myriad Pro;font-weight:700;}.cls-7{letter-spacing:-0.1em;}.cls-8{stroke-width:9px;}</style></defs><g id="Layer_2" data-name="Layer 2"><g id="Layer_1-2" data-name="Layer 1"><g id="INDIKATOR_3" data-name="INDIKATOR 3"><rect class="cls-1" width="1063.15" height="1063.15" rx="104.17"/><circle cx="533.38" cy="531.75" r="496.85"/><circle class="cls-2" cx="533.38" cy="531.75" r="424.34"/></g><line class="cls-3" x1="531.57" y1="162.42" x2="531.57" y2="107.23"/><line class="cls-3" x1="531.57" y1="955.91" x2="531.57" y2="900.73"/><line class="cls-3" x1="900.73" y1="531.57" x2="955.91" y2="531.57"/><line class="cls-3" x1="107.23" y1="531.57" x2="162.42" y2="531.57"/><line class="cls-3" x1="804.37" y1="804.37" x2="831.63" y2="831.63"/><line class="cls-3" x1="231.52" y1="231.52" x2="258.78" y2="258.78"/><line class="cls-3" x1="804.37" y1="258.78" x2="831.63" y2="231.52"/><line class="cls-3" x1="231.52" y1="831.63" x2="258.78" y2="804.37"/><line class="cls-4" x1="594.01" y1="925.78" x2="597.96" y2="950.69"/><line class="cls-4" x1="465.19" y1="112.46" x2="469.14" y2="137.36"/><line class="cls-4" x1="654.91" y1="911.16" x2="662.7" y2="935.15"/><line class="cls-4" x1="400.45" y1="128" x2="408.24" y2="151.99"/><line class="cls-4" x1="712.77" y1="887.2" x2="724.22" y2="909.66"/><line class="cls-4" x1="338.93" y1="153.48" x2="350.38" y2="175.95"/><line class="cls-4" x1="766.17" y1="854.47" x2="781" y2="874.87"/><line class="cls-4" x1="282.15" y1="188.28" x2="296.98" y2="208.68"/><line class="cls-4" x1="813.8" y1="813.8" x2="831.63" y2="831.63"/><line class="cls-4" x1="231.52" y1="231.52" x2="249.35" y2="249.35"/><line class="cls-4" x1="854.47" y1="766.17" x2="874.87" y2="781"/><line class="cls-4" x1="188.28" y1="282.15" x2="208.68" y2="296.98"/><line class="cls-4" x1="887.2" y1="712.77" x2="909.66" y2="724.22"/><line class="cls-4" x1="153.48" y1="338.93" x2="175.95" y2="350.38"/><line class="cls-4" x1="911.16" y1="654.91" x2="935.15" y2="662.7"/><line class="cls-4" x1="128" y1="400.45" x2="151.99" y2="408.24"/><line class="cls-4" x1="925.78" y1="594.01" x2="950.69" y2="597.96"/><line class="cls-4" x1="112.46" y1="465.19" x2="137.36" y2="469.14"/><line class="cls-4" x1="930.7" y1="531.57" x2="955.91" y2="531.57"/><line class="cls-4" x1="107.23" y1="531.57" x2="132.45" y2="531.57"/><line class="cls-4" x1="925.78" y1="469.14" x2="950.69" y2="465.19"/><line class="cls-4" x1="112.46" y1="597.96" x2="137.36" y2="594.01"/><line class="cls-4" x1="911.16" y1="408.24" x2="935.15" y2="400.45"/><line class="cls-4" x1="128" y1="662.7" x2="151.99" y2="654.91"/><line class="cls-4" x1="887.2" y1="350.38" x2="909.66" y2="338.93"/><line class="cls-4" x1="153.48" y1="724.22" x2="175.95" y2="712.77"/><line class="cls-4" x1="854.47" y1="296.98" x2="874.87" y2="282.15"/><line class="cls-4" x1="188.28" y1="781" x2="208.68" y2="766.17"/><line class="cls-4" x1="813.8" y1="249.35" x2="831.63" y2="231.52"/><line class="cls-4" x1="231.52" y1="831.63" x2="249.35" y2="813.8"/><line class="cls-4" x1="766.17" y1="208.68" x2="781" y2="188.28"/><line class="cls-4" x1="282.15" y1="874.87" x2="296.98" y2="854.47"/><line class="cls-4" x1="712.77" y1="175.95" x2="724.22" y2="153.48"/><line class="cls-4" x1="338.93" y1="909.66" x2="350.38" y2="887.2"/><line class="cls-4" x1="654.91" y1="151.99" x2="662.7" y2="128"/><line class="cls-4" x1="400.45" y1="935.15" x2="408.24" y2="911.16"/><line class="cls-4" x1="594.01" y1="137.37" x2="597.96" y2="112.46"/><line class="cls-4" x1="465.19" y1="950.69" x2="469.14" y2="925.78"/><text class="cls-5" transform="translate(514.87 208.68)">0</text><text class="cls-5" transform="translate(766.17 296.98)">1</text><text class="cls-5" transform="translate(864.67 547.03)">2</text><text class="cls-5" transform="translate(773.58 791.84)">3</text><text class="cls-5" transform="translate(269.82 804.37)">5</text><text class="cls-5" transform="translate(517.07 887.2)">4</text><text class="cls-5" transform="translate(164.72 547.71)">6</text><text class="cls-5" transform="translate(267.61 289.56)">7</text><text class="cls-6" transform="translate(470.85 329.32)">A<tspan class="cls-7" x="52.3" y="0">L</tspan><tspan x="84.75" y="0">T</tspan></text><path d="M451.86,631.07h-3.71l10.73-29.22h3.66l10.73,29.22h-3.71l-8.74-24.6h-.22Zm1.37-11.41h15v3.14h-15Z"/><path d="M477.84,631.07V601.85h3.53v26.08H495v3.14Z"/><path d="M495,605v-3.14h21.92V605h-9.19v26.08h-3.54V605Z"/><path d="M525.9,601.85v29.22h-3.54V601.85Z"/><path d="M531.38,605v-3.14H553.3V605h-9.19v26.08h-3.54V605Z"/><path d="M578,601.85h3.54V621.2a10.14,10.14,0,0,1-1.41,5.34,9.9,9.9,0,0,1-4,3.7,14,14,0,0,1-12,0,9.9,9.9,0,0,1-4-3.7,10.23,10.23,0,0,1-1.4-5.34V601.85h3.54v19.06a7.52,7.52,0,0,0,.94,3.8,6.72,6.72,0,0,0,2.69,2.62,9.72,9.72,0,0,0,8.38,0,6.66,6.66,0,0,0,2.69-2.62,7.52,7.52,0,0,0,.94-3.8Z"/><path d="M597.59,631.07h-9V601.85H598a14.37,14.37,0,0,1,7.28,1.74,11.61,11.61,0,0,1,4.64,5,19.73,19.73,0,0,1,0,15.66,11.56,11.56,0,0,1-4.73,5A15.11,15.11,0,0,1,597.59,631.07Zm-5.48-3.14h5.26a11.64,11.64,0,0,0,6-1.4,8.57,8.57,0,0,0,3.56-4,16.68,16.68,0,0,0,0-12.25,8.57,8.57,0,0,0-3.45-3.94,11,11,0,0,0-5.73-1.37h-5.65Z"/><path d="M617.46,631.07V601.85H635.1V605H621v9.87h13.18V618H621v9.93h14.33v3.14Z"/><rect class="cls-8" x="434.53" y="645.41" width="220.38" height="57.19"/></g></g></svg>