<svg width="1064" height="1064" viewBox="0 0 1064 1064" fill="none" xmlns="http://www.w3.org/2000/svg">
<g clip-path="url(#clip0)">
<path d="M958.98 0H104.17C46.6385 0 0 46.6385 0 104.17V958.98C0 1016.51 46.6385 1063.15 104.17 1063.15H958.98C1016.51 1063.15 1063.15 1016.51 1063.15 958.98V104.17C1063.15 46.6385 1016.51 0 958.98 0Z" fill="#262626"/>
<path d="M533.38 1028.6C807.783 1028.6 1030.23 806.153 1030.23 531.75C1030.23 257.347 807.783 34.8999 533.38 34.8999C258.977 34.8999 36.53 257.347 36.53 531.75C36.53 806.153 258.977 1028.6 533.38 1028.6Z" fill="black"/>
<path d="M533.38 956.09C767.737 956.09 957.72 766.106 957.72 531.75C957.72 297.393 767.737 107.41 533.38 107.41C299.024 107.41 109.04 297.393 109.04 531.75C109.04 766.106 299.024 956.09 533.38 956.09Z" fill="#282828"/>
<path d="M531.22 140L531.69 175.81" stroke="white" stroke-width="12" stroke-miterlimit="10"/>
<path d="M825.86 795.19L799.38 771.08" stroke="white" stroke-width="12" stroke-miterlimit="10"/>
<path d="M536.33 923.13V887.32" stroke="white" stroke-width="12" stroke-miterlimit="10"/>
<path d="M427.54 818.57L398.14 898.57" stroke="white" stroke-width="12" stroke-miterlimit="10"/>
<path d="M274.35 697.98L203.5 745.34" stroke="white" stroke-miterlimit="10"/>
<path d="M205 747.49L278.5 697.66" stroke="white" stroke-width="12" stroke-miterlimit="10"/>
<path d="M136 522.92H224.8" stroke="white" stroke-width="12" stroke-miterlimit="10"/>
<path d="M199.92 305.92L274.54 354.07" stroke="white" stroke-width="12" stroke-miterlimit="10"/>
<path d="M396.43 147.92L427.43 231.13" stroke="white" stroke-width="12" stroke-miterlimit="10"/>
<path d="M347.36 874.52L364.64 843.15" stroke="white" stroke-width="12" stroke-miterlimit="10"/>
<path d="M308.13 849.77L329 820.67" stroke="white" stroke-width="12" stroke-miterlimit="10"/>
<path d="M269.75 818.38L294.12 792.14" stroke="white" stroke-width="12" stroke-miterlimit="10"/>
<path d="M242.05 789.92L269 766.25" stroke="white" stroke-width="12" stroke-miterlimit="10"/>
<path d="M183.54 701.48L215.8 685.92" stroke="white" stroke-width="12" stroke-miterlimit="10"/>
<path d="M165.92 658.58L199.8 646.92" stroke="white" stroke-width="12" stroke-miterlimit="10"/>
<path d="M152.84 610.74L187.91 603.5" stroke="white" stroke-width="12" stroke-miterlimit="10"/>
<path d="M146.79 571.47L182.41 567.82" stroke="white" stroke-width="12" stroke-miterlimit="10"/>
<path d="M148.62 476.57L184.08 481.57" stroke="white" stroke-width="12" stroke-miterlimit="10"/>
<path d="M157.85 431.11L192.46 440.3" stroke="white" stroke-width="12" stroke-miterlimit="10"/>
<path d="M173.57 384.08L206.75 397.57" stroke="white" stroke-width="12" stroke-miterlimit="10"/>
<path d="M190.39 348.08L222 364.85" stroke="white" stroke-width="12" stroke-miterlimit="10"/>
<path d="M244.81 270.11L271.47 294.01" stroke="white" stroke-width="12" stroke-miterlimit="10"/>
<path d="M277.77 237.47L301.41 264.36" stroke="white" stroke-width="12" stroke-miterlimit="10"/>
<path d="M317 207.15L337.06 236.82" stroke="white" stroke-width="12" stroke-miterlimit="10"/>
<path d="M351 186.59L368 218.14" stroke="white" stroke-width="12" stroke-miterlimit="10"/>
<path d="M269 556.81C265.037 556.91 261.157 555.658 258 553.26C254.723 550.573 252.293 546.996 251 542.96C249.278 537.689 248.463 532.164 248.59 526.62C248.453 521.092 249.268 515.581 251 510.33C252.299 506.289 254.728 502.704 258 500C261.198 497.679 265.048 496.43 269 496.43C272.951 496.43 276.802 497.679 280 500C283.272 502.704 285.701 506.289 287 510.33C288.731 515.582 289.549 521.092 289.42 526.62C289.549 532.174 288.73 537.71 287 542.99C285.713 547.028 283.281 550.606 280 553.29C276.838 555.675 272.959 556.916 269 556.81V556.81ZM269 550.49C273.29 550.49 276.61 548.43 279 544.3C281.39 540.17 282.56 534.3 282.56 526.62C282.65 522.231 282.101 517.851 280.93 513.62C280.131 510.532 278.53 507.71 276.29 505.44C274.323 503.589 271.71 502.581 269.01 502.63C264.763 502.63 261.43 504.72 259.01 508.9C256.59 513.08 255.393 518.99 255.42 526.63C255.328 531.018 255.871 535.397 257.03 539.63C257.819 542.704 259.422 545.509 261.67 547.75C263.66 549.588 266.292 550.572 269 550.49V550.49Z" fill="white"/>
<path d="M249.21 630.83H238.3V595.5H249.69C252.759 595.41 255.796 596.138 258.49 597.61C260.927 599.017 262.88 601.13 264.09 603.67C265.383 606.656 266.05 609.876 266.05 613.13C266.05 616.384 265.383 619.604 264.09 622.59C262.848 625.164 260.849 627.296 258.36 628.7C255.547 630.193 252.393 630.927 249.21 630.83ZM242.58 627.03H248.93C251.458 627.128 253.965 626.544 256.19 625.34C258.097 624.233 259.602 622.548 260.49 620.53C262.36 615.77 262.36 610.48 260.49 605.72C259.623 603.739 258.162 602.076 256.31 600.96C254.2 599.779 251.806 599.201 249.39 599.29H242.56L242.58 627.03Z" fill="white"/>
<path d="M303 613.16C303.092 616.492 302.407 619.799 301 622.82C299.787 625.397 297.865 627.575 295.46 629.1C293.029 630.547 290.253 631.31 287.425 631.31C284.597 631.31 281.821 630.547 279.39 629.1C276.985 627.575 275.063 625.397 273.85 622.82C272.518 619.774 271.83 616.485 271.83 613.16C271.83 609.835 272.518 606.546 273.85 603.5C275.07 600.928 276.99 598.752 279.39 597.22C281.823 595.78 284.598 595.02 287.425 595.02C290.252 595.02 293.027 595.78 295.46 597.22C297.86 598.752 299.78 600.928 301 603.5C302.407 606.521 303.092 609.828 303 613.16ZM298.86 613.16C298.941 610.498 298.418 607.851 297.33 605.42C296.68 604.01 295.739 602.753 294.568 601.732C293.397 600.712 292.024 599.951 290.538 599.499C289.052 599.047 287.487 598.916 285.947 599.112C284.406 599.309 282.925 599.83 281.6 600.64C279.791 601.799 278.36 603.46 277.48 605.42C275.44 610.382 275.44 615.948 277.48 620.91C278.13 622.322 279.071 623.58 280.243 624.602C281.414 625.623 282.789 626.385 284.276 626.836C285.763 627.288 287.329 627.419 288.871 627.222C290.413 627.024 291.895 626.502 293.22 625.69C295.019 624.52 296.448 622.862 297.34 620.91C298.42 618.473 298.939 615.824 298.86 613.16V613.16Z" fill="white"/>
<path d="M316.64 630.83L307 595.5H311.35L318.73 624.27H319.08L326.6 595.5H331.43L338.95 624.27H339.3L346.66 595.5H351L341.34 630.83H336.92L329.12 602.67H328.85L321 630.83H316.64Z" fill="white"/>
<path d="M384.32 595.5V630.83H380.18L360.92 603.09H360.58V630.83H356.3V595.5H360.44L379.76 623.31H380.11V595.5H384.32Z" fill="white"/>
<path d="M273.87 421.45H278.15V444.84C278.189 447.109 277.6 449.344 276.45 451.3C275.302 453.204 273.647 454.752 271.67 455.77C269.404 456.843 266.928 457.4 264.42 457.4C261.912 457.4 259.436 456.843 257.17 455.77C255.193 454.752 253.538 453.204 252.39 451.3C251.24 449.344 250.651 447.109 250.69 444.84V421.45H255V444.45C254.968 446.057 255.362 447.644 256.14 449.05C256.901 450.391 258.028 451.487 259.39 452.21C260.971 452.967 262.702 453.36 264.455 453.36C266.208 453.36 267.939 452.967 269.52 452.21C270.885 451.492 272.014 450.395 272.77 449.05C273.54 447.641 273.929 446.055 273.9 444.45L273.87 421.45Z" fill="white"/>
<path d="M286.71 456.78V421.45H298.64C300.998 421.348 303.341 421.862 305.44 422.94C307.128 423.84 308.5 425.236 309.37 426.94C310.206 428.711 310.64 430.646 310.64 432.605C310.64 434.564 310.206 436.499 309.37 438.27C308.514 439.989 307.153 441.405 305.47 442.33C303.382 443.41 301.049 443.93 298.7 443.84H290.15V440.05H298.57C300.154 440.117 301.729 439.772 303.14 439.05C304.239 438.453 305.118 437.521 305.65 436.39C306.164 435.189 306.43 433.896 306.43 432.59C306.43 431.284 306.164 429.991 305.65 428.79C305.115 427.662 304.226 426.739 303.12 426.16C301.689 425.442 300.1 425.098 298.5 425.16H291V456.7L286.71 456.78Z" fill="white"/>
<path d="M298 396.523V391.363L317.4 370.163C319.68 367.67 321.557 365.503 323.03 363.663C324.338 362.064 325.44 360.307 326.31 358.433C327.031 356.813 327.399 355.057 327.39 353.283C327.432 351.387 326.918 349.52 325.91 347.913C324.921 346.403 323.538 345.193 321.91 344.413C320.114 343.574 318.152 343.154 316.17 343.183C314.117 343.134 312.085 343.613 310.27 344.573C308.626 345.465 307.278 346.817 306.39 348.463C305.449 350.27 304.981 352.286 305.03 354.323H298.26C298.191 351.143 299.016 348.008 300.64 345.273C302.207 342.686 304.456 340.579 307.14 339.183C309.999 337.703 313.181 336.954 316.4 337.003C319.585 336.943 322.734 337.694 325.55 339.183C328.121 340.554 330.281 342.584 331.81 345.063C333.322 347.544 334.109 350.398 334.08 353.303C334.078 355.467 333.681 357.612 332.91 359.633C331.906 362.097 330.56 364.406 328.91 366.493C326.997 369.013 324.36 372.08 321 375.693L307.8 389.813V390.273H335.12V396.583L298 396.523Z" fill="white"/>
<path d="M428 293.69V287.84L453.86 247H458.11V256.07H455.22L435.72 286.95V287.41H470.51V293.69H428ZM455.67 305.75V247H462.44V305.78L455.67 305.75Z" fill="white"/>
<path d="M626.445 306.473C623.974 306.421 621.53 305.954 619.215 305.093C616.696 304.142 614.436 302.615 612.615 300.633C610.413 298.173 608.775 295.262 607.815 292.103C606.503 287.716 605.896 283.15 606.015 278.573C605.954 273.895 606.444 269.226 607.475 264.663C608.285 261.044 609.723 257.595 611.725 254.473C613.413 251.847 615.725 249.679 618.455 248.163C621.192 246.696 624.259 245.952 627.365 246.003C630.416 245.95 633.435 246.636 636.165 248.003C638.69 249.283 640.855 251.174 642.465 253.503C644.121 255.941 645.198 258.725 645.615 261.643H638.615C638.046 259.088 636.726 256.762 634.825 254.963C632.778 253.144 630.099 252.203 627.365 252.343C625.205 252.294 623.072 252.822 621.185 253.873C619.299 254.919 617.723 256.444 616.615 258.293C614.008 262.293 612.675 267.886 612.615 275.073H613.175C614.754 272.674 616.901 270.701 619.425 269.33C621.949 267.959 624.772 267.232 627.645 267.213C630.897 267.184 634.094 268.052 636.885 269.723C639.685 271.409 642.001 273.794 643.605 276.643C645.32 279.725 646.189 283.206 646.125 286.733C646.174 290.219 645.334 293.661 643.685 296.733C642.1 299.704 639.735 302.186 636.845 303.913C633.701 305.715 630.116 306.601 626.495 306.473H626.445ZM626.445 300.153C628.74 300.184 630.996 299.555 632.945 298.343C634.857 297.146 636.428 295.475 637.505 293.493C638.598 291.429 639.174 289.131 639.184 286.795C639.195 284.46 638.639 282.157 637.565 280.083C636.529 278.125 634.994 276.476 633.115 275.303C631.184 274.102 628.948 273.484 626.675 273.523C624.924 273.511 623.191 273.876 621.595 274.593C620.037 275.311 618.636 276.331 617.475 277.593C616.295 278.829 615.356 280.274 614.705 281.853C614.044 283.437 613.705 285.137 613.705 286.853C613.695 289.14 614.263 291.393 615.355 293.403C616.427 295.395 617.985 297.084 619.885 298.313C621.843 299.559 624.123 300.206 626.445 300.173V300.153Z" fill="white"/>
<path d="M638.4 818.25L667.8 898.25" stroke="white" stroke-width="12" stroke-miterlimit="10"/>
<path d="M791.59 697.66L862.44 745.02" stroke="white" stroke-miterlimit="10"/>
<path d="M861 747.17L787.5 697.34" stroke="white" stroke-width="12" stroke-miterlimit="10"/>
<path d="M929.94 522.59H841.14" stroke="white" stroke-width="12" stroke-miterlimit="10"/>
<path d="M866 305.61L791.4 353.76" stroke="white" stroke-width="12" stroke-miterlimit="10"/>
<path d="M669.51 147.58L638.51 230.79" stroke="white" stroke-width="12" stroke-miterlimit="10"/>
<path d="M718.58 874.2L701.3 842.83" stroke="white" stroke-width="12" stroke-miterlimit="10"/>
<path d="M757.81 849.45L736.94 820.35" stroke="white" stroke-width="12" stroke-miterlimit="10"/>
<path d="M796.19 818.06L771.82 791.82" stroke="white" stroke-width="12" stroke-miterlimit="10"/>
<path d="M823.89 789.56L797 765.92" stroke="white" stroke-width="12" stroke-miterlimit="10"/>
<path d="M882.4 701.16L850.14 685.62" stroke="white" stroke-width="12" stroke-miterlimit="10"/>
<path d="M900 658.26L866.12 646.64" stroke="white" stroke-width="12" stroke-miterlimit="10"/>
<path d="M913.1 610.42L878 603.18" stroke="white" stroke-width="12" stroke-miterlimit="10"/>
<path d="M919.15 571.15L883.53 567.5" stroke="white" stroke-width="12" stroke-miterlimit="10"/>
<path d="M917.32 476.25L881.86 481.25" stroke="white" stroke-width="12" stroke-miterlimit="10"/>
<path d="M908.09 430.79L873.48 439.98" stroke="white" stroke-width="12" stroke-miterlimit="10"/>
<path d="M892.37 383.76L859.19 397.25" stroke="white" stroke-width="12" stroke-miterlimit="10"/>
<path d="M875.55 347.76L843.92 364.53" stroke="white" stroke-width="12" stroke-miterlimit="10"/>
<path d="M821.13 269.79L794.47 293.69" stroke="white" stroke-width="12" stroke-miterlimit="10"/>
<path d="M788.17 237.15L764.53 264.04" stroke="white" stroke-width="12" stroke-miterlimit="10"/>
<path d="M748.93 206.83L728.93 236.5" stroke="white" stroke-width="12" stroke-miterlimit="10"/>
<path d="M714.92 186.27L698 217.82" stroke="white" stroke-width="12" stroke-miterlimit="10"/>
<path d="M739.52 362.92C736.533 361.747 734.24 360.04 732.64 357.8C731.04 355.56 730.24 352.84 730.24 349.64C730.24 346.76 730.96 344.173 732.4 341.88C733.84 339.533 735.973 337.693 738.8 336.36C741.68 334.973 745.147 334.28 749.2 334.28C753.253 334.28 756.693 334.973 759.52 336.36C762.4 337.693 764.56 339.533 766 341.88C767.493 344.173 768.24 346.76 768.24 349.64C768.24 352.733 767.413 355.453 765.76 357.8C764.107 360.093 761.84 361.8 758.96 362.92C762.267 363.933 764.88 365.72 766.8 368.28C768.773 370.787 769.76 373.827 769.76 377.4C769.76 380.867 768.907 383.907 767.2 386.52C765.493 389.08 763.067 391.08 759.92 392.52C756.827 393.907 753.253 394.6 749.2 394.6C745.147 394.6 741.573 393.907 738.48 392.52C735.44 391.08 733.067 389.08 731.36 386.52C729.653 383.907 728.8 380.867 728.8 377.4C728.8 373.827 729.76 370.76 731.68 368.2C733.6 365.64 736.213 363.88 739.52 362.92ZM761.2 350.52C761.2 347.267 760.133 344.76 758 343C755.867 341.24 752.933 340.36 749.2 340.36C745.52 340.36 742.613 341.24 740.48 343C738.347 344.76 737.28 347.293 737.28 350.6C737.28 353.587 738.373 355.987 740.56 357.8C742.8 359.613 745.68 360.52 749.2 360.52C752.773 360.52 755.653 359.613 757.84 357.8C760.08 355.933 761.2 353.507 761.2 350.52ZM749.2 366.12C745.253 366.12 742.027 367.053 739.52 368.92C737.013 370.733 735.76 373.48 735.76 377.16C735.76 380.573 736.96 383.32 739.36 385.4C741.813 387.48 745.093 388.52 749.2 388.52C753.307 388.52 756.56 387.48 758.96 385.4C761.36 383.32 762.56 380.573 762.56 377.16C762.56 373.587 761.333 370.867 758.88 369C756.427 367.08 753.2 366.12 749.2 366.12Z" fill="white"/>
<path d="M757.04 503.8V497.16H772.08V555H764.72V503.8H757.04ZM784.585 525.48C784.585 516.307 786.078 509.16 789.065 504.04C792.052 498.867 797.278 496.28 804.745 496.28C812.158 496.28 817.358 498.867 820.345 504.04C823.332 509.16 824.825 516.307 824.825 525.48C824.825 534.813 823.332 542.067 820.345 547.24C817.358 552.413 812.158 555 804.745 555C797.278 555 792.052 552.413 789.065 547.24C786.078 542.067 784.585 534.813 784.585 525.48ZM817.625 525.48C817.625 520.84 817.305 516.92 816.665 513.72C816.078 510.467 814.825 507.853 812.905 505.88C811.038 503.907 808.318 502.92 804.745 502.92C801.118 502.92 798.345 503.907 796.425 505.88C794.558 507.853 793.305 510.467 792.665 513.72C792.078 516.92 791.785 520.84 791.785 525.48C791.785 530.28 792.078 534.307 792.665 537.56C793.305 540.813 794.558 543.427 796.425 545.4C798.345 547.373 801.118 548.36 804.745 548.36C808.318 548.36 811.038 547.373 812.905 545.4C814.825 543.427 816.078 540.813 816.665 537.56C817.305 534.307 817.625 530.28 817.625 525.48Z" fill="white"/>
<path d="M706.04 661.8V655.16H721.08V713H713.72V661.8H706.04ZM732.705 707.16C739.478 701.72 744.785 697.267 748.625 693.8C752.465 690.28 755.692 686.627 758.305 682.84C760.972 679 762.305 675.24 762.305 671.56C762.305 668.093 761.452 665.373 759.745 663.4C758.092 661.373 755.398 660.36 751.665 660.36C748.038 660.36 745.212 661.507 743.185 663.8C741.212 666.04 740.145 669.053 739.985 672.84H732.945C733.158 666.867 734.972 662.253 738.385 659C741.798 655.747 746.198 654.12 751.585 654.12C757.078 654.12 761.425 655.64 764.625 658.68C767.878 661.72 769.505 665.907 769.505 671.24C769.505 675.667 768.172 679.987 765.505 684.2C762.892 688.36 759.905 692.04 756.545 695.24C753.185 698.387 748.892 702.067 743.665 706.28H771.185V712.36H732.705V707.16Z" fill="white"/>
<path d="M593.04 751.8V745.16H608.08V803H600.72V751.8H593.04ZM618.825 790.12V784.6L646.905 745.72H655.625V783.8H663.625V790.12H655.625V803H648.425V790.12H618.825ZM648.745 753.32L627.225 783.8H648.745V753.32Z" fill="white"/>
<path d="M398.04 754.8V748.16H413.08V806H405.72V754.8H398.04ZM457.825 761.92C456.652 756 452.998 753.04 446.865 753.04C442.118 753.04 438.572 754.88 436.225 758.56C433.878 762.187 432.732 768.187 432.785 776.56C434.012 773.787 436.038 771.627 438.865 770.08C441.745 768.48 444.945 767.68 448.465 767.68C453.958 767.68 458.332 769.387 461.585 772.8C464.892 776.213 466.545 780.933 466.545 786.96C466.545 790.587 465.825 793.84 464.385 796.72C462.998 799.6 460.865 801.893 457.985 803.6C455.158 805.307 451.718 806.16 447.665 806.16C442.172 806.16 437.878 804.933 434.785 802.48C431.692 800.027 429.532 796.64 428.305 792.32C427.078 788 426.465 782.667 426.465 776.32C426.465 756.747 433.292 746.96 446.945 746.96C452.172 746.96 456.278 748.373 459.265 751.2C462.252 754.027 464.012 757.6 464.545 761.92H457.825ZM446.945 773.84C444.652 773.84 442.492 774.32 440.465 775.28C438.438 776.187 436.785 777.6 435.505 779.52C434.278 781.387 433.665 783.68 433.665 786.4C433.665 790.453 434.838 793.76 437.185 796.32C439.532 798.827 442.892 800.08 447.265 800.08C450.998 800.08 453.958 798.933 456.145 796.64C458.385 794.293 459.505 791.147 459.505 787.2C459.505 783.04 458.438 779.787 456.305 777.44C454.172 775.04 451.052 773.84 446.945 773.84Z" fill="white"/>
<path d="M290.04 661.8V655.16H305.08V713H297.72V661.8H290.04ZM328.145 682.92C325.158 681.747 322.865 680.04 321.265 677.8C319.665 675.56 318.865 672.84 318.865 669.64C318.865 666.76 319.585 664.173 321.025 661.88C322.465 659.533 324.598 657.693 327.425 656.36C330.305 654.973 333.772 654.28 337.825 654.28C341.878 654.28 345.318 654.973 348.145 656.36C351.025 657.693 353.185 659.533 354.625 661.88C356.118 664.173 356.865 666.76 356.865 669.64C356.865 672.733 356.038 675.453 354.385 677.8C352.732 680.093 350.465 681.8 347.585 682.92C350.892 683.933 353.505 685.72 355.425 688.28C357.398 690.787 358.385 693.827 358.385 697.4C358.385 700.867 357.532 703.907 355.825 706.52C354.118 709.08 351.692 711.08 348.545 712.52C345.452 713.907 341.878 714.6 337.825 714.6C333.772 714.6 330.198 713.907 327.105 712.52C324.065 711.08 321.692 709.08 319.985 706.52C318.278 703.907 317.425 700.867 317.425 697.4C317.425 693.827 318.385 690.76 320.305 688.2C322.225 685.64 324.838 683.88 328.145 682.92ZM349.825 670.52C349.825 667.267 348.758 664.76 346.625 663C344.492 661.24 341.558 660.36 337.825 660.36C334.145 660.36 331.238 661.24 329.105 663C326.972 664.76 325.905 667.293 325.905 670.6C325.905 673.587 326.998 675.987 329.185 677.8C331.425 679.613 334.305 680.52 337.825 680.52C341.398 680.52 344.278 679.613 346.465 677.8C348.705 675.933 349.825 673.507 349.825 670.52ZM337.825 686.12C333.878 686.12 330.652 687.053 328.145 688.92C325.638 690.733 324.385 693.48 324.385 697.16C324.385 700.573 325.585 703.32 327.985 705.4C330.438 707.48 333.718 708.52 337.825 708.52C341.932 708.52 345.185 707.48 347.585 705.4C349.985 703.32 351.185 700.573 351.185 697.16C351.185 693.587 349.958 690.867 347.505 689C345.052 687.08 341.825 686.12 337.825 686.12Z" fill="white"/>
</g>
<defs>
<clipPath id="clip0">
<rect width="1063.15" height="1063.15" fill="white"/>
</clipPath>
</defs>
</svg>
