<svg xmlns="http://www.w3.org/2000/svg" viewBox="0 0 1063.15 1063.15"><defs><style>.cls-1{fill:#262626;}.cls-2{fill:#282828;}.cls-3,.cls-4,.cls-6{fill:none;}.cls-3,.cls-4{stroke:#fff;stroke-miterlimit:10;}.cls-3{stroke-width:12px;}.cls-5{fill:#fff;}</style></defs><g id="Layer_2" data-name="Layer 2"><g id="Layer_1-2" data-name="Layer 1"><rect class="cls-1" width="1063.15" height="1063.15" rx="104.17"/><circle cx="533.38" cy="531.75" r="496.85"/><circle class="cls-2" cx="533.38" cy="531.75" r="424.34"/><line class="cls-3" x1="422.9" y1="818.58" x2="393.5" y2="898.57"/><line class="cls-3" x1="669.65" y1="147.28" x2="639.02" y2="230.63"/><line class="cls-4" x1="335.31" y1="769.3" x2="282.21" y2="835.96"/><line class="cls-3" x1="780.94" y1="209.89" x2="725.61" y2="279.34"/><line class="cls-4" x1="222.01" y1="464.67" x2="138.26" y2="448.91"/><line class="cls-3" x1="924.89" y1="596.94" x2="837.62" y2="580.51"/><line class="cls-4" x1="221.74" y1="579.72" x2="137.92" y2="595.09"/><line class="cls-3" x1="925.23" y1="450.76" x2="837.89" y2="466.77"/><line class="cls-4" x1="235.26" y1="629.79" x2="155.09" y2="658.7"/><line class="cls-3" x1="908.06" y1="387.14" x2="824.52" y2="417.27"/><line class="cls-4" x1="269.71" y1="697.99" x2="198.86" y2="745.35"/><line class="cls-3" x1="864.29" y1="300.49" x2="790.47" y2="349.85"/><line class="cls-4" x1="238.25" y1="408.09" x2="158.9" y2="377.02"/><line class="cls-3" x1="904.25" y1="668.82" x2="821.56" y2="636.45"/><line class="cls-4" x1="273.99" y1="341.61" x2="204.31" y2="292.55"/><line class="cls-3" x1="858.84" y1="753.29" x2="786.23" y2="702.18"/><line class="cls-4" x1="336.44" y1="275.65" x2="283.65" y2="208.75"/><line class="cls-3" x1="779.5" y1="837.1" x2="724.49" y2="767.39"/><line class="cls-4" x1="429.7" y1="224.85" x2="402.14" y2="144.21"/><line class="cls-3" x1="661.01" y1="901.63" x2="632.29" y2="817.6"/><line class="cls-4" x1="792.3" y1="346.16" x2="862.84" y2="298.34"/><line class="cls-3" x1="200.31" y1="747.5" x2="273.81" y2="697.67"/><line class="cls-4" x1="846.57" y1="522.92" x2="931.79" y2="522.92"/><line class="cls-3" x1="131.36" y1="522.92" x2="220.16" y2="522.92"/><line class="cls-4" x1="796.26" y1="693.7" x2="867.87" y2="739.9"/><line class="cls-3" x1="195.28" y1="305.94" x2="269.9" y2="354.09"/><line class="cls-4" x1="641.59" y1="818.08" x2="671.35" y2="897.94"/><line class="cls-3" x1="391.79" y1="147.91" x2="422.81" y2="231.12"/><line class="cls-4" x1="385.29" y1="800.68" x2="344.57" y2="875.54"/><line class="cls-3" x1="718.81" y1="187.58" x2="701.7" y2="219.04"/><line class="cls-3" x1="526.58" y1="140.01" x2="527.05" y2="175.82"/><line class="cls-4" x1="307.43" y1="740.28" x2="245.05" y2="798.34"/><line class="cls-3" x1="818.32" y1="264.77" x2="792.11" y2="289.17"/><line class="cls-4" x1="261.34" y1="675.67" x2="186.14" y2="715.76"/><line class="cls-3" x1="877.24" y1="347.36" x2="845.64" y2="364.2"/><line class="cls-4" x1="237.86" y1="618.28" x2="156.12" y2="642.4"/><line class="cls-3" x1="907.25" y1="420.71" x2="872.91" y2="430.85"/><line class="cls-4" x1="235.34" y1="453.88" x2="152.9" y2="432.28"/><line class="cls-3" x1="910.47" y1="630.84" x2="875.83" y2="621.76"/><line class="cls-4" x1="259.59" y1="390.78" x2="183.89" y2="351.63"/><line class="cls-3" x1="879.48" y1="711.49" x2="847.67" y2="695.04"/><line class="cls-4" x1="305.17" y1="325.29" x2="242.16" y2="267.92"/><line class="cls-3" x1="821.22" y1="795.2" x2="794.74" y2="771.09"/><line class="cls-3" x1="531.69" y1="923.14" x2="531.69" y2="887.33"/><line class="cls-3" x1="342.72" y1="874.53" x2="360" y2="843.16"/><line class="cls-3" x1="303.49" y1="849.78" x2="324.36" y2="820.68"/><line class="cls-3" x1="265.11" y1="818.39" x2="289.48" y2="792.15"/><line class="cls-3" x1="237.41" y1="789.89" x2="264.32" y2="766.26"/><line class="cls-4" x1="807.69" y1="398.61" x2="884.47" y2="361.62"/><line class="cls-3" x1="178.9" y1="701.49" x2="211.16" y2="685.95"/><line class="cls-4" x1="821.48" y1="432.18" x2="902.09" y2="404.53"/><line class="cls-3" x1="161.28" y1="658.59" x2="195.16" y2="646.97"/><line class="cls-4" x1="831.72" y1="469.6" x2="915.18" y2="452.36"/><line class="cls-3" x1="148.2" y1="610.75" x2="183.27" y2="603.51"/><line class="cls-4" x1="836.45" y1="500.33" x2="921.23" y2="491.64"/><line class="cls-3" x1="142.15" y1="571.48" x2="177.77" y2="567.83"/><line class="cls-4" x1="835.01" y1="574.57" x2="919.39" y2="586.54"/><line class="cls-3" x1="143.98" y1="476.58" x2="179.44" y2="481.61"/><line class="cls-4" x1="827.8" y1="610.14" x2="910.17" y2="631.99"/><line class="cls-3" x1="153.21" y1="431.12" x2="187.82" y2="440.31"/><line class="cls-4" x1="815.49" y1="646.93" x2="894.44" y2="679.02"/><line class="cls-3" x1="168.93" y1="384.09" x2="202.11" y2="397.58"/><line class="cls-4" x1="802.34" y1="675.1" x2="877.63" y2="715.03"/><line class="cls-3" x1="185.75" y1="348.09" x2="217.38" y2="364.86"/><line class="cls-4" x1="759.76" y1="736.1" x2="823.21" y2="793"/><line class="cls-3" x1="240.17" y1="270.12" x2="266.83" y2="294.02"/><line class="cls-4" x1="733.98" y1="761.63" x2="790.25" y2="825.64"/><line class="cls-3" x1="273.13" y1="237.48" x2="296.77" y2="264.37"/><line class="cls-4" x1="703.28" y1="785.36" x2="751.01" y2="855.96"/><line class="cls-3" x1="312.37" y1="207.16" x2="332.42" y2="236.83"/><line class="cls-4" x1="676.67" y1="801.44" x2="717" y2="876.51"/><line class="cls-3" x1="346.38" y1="186.6" x2="363.32" y2="218.15"/><path class="cls-5" d="M456.38,263.47v58.78h-7.12V270.93h-.34l-14.35,9.53v-7.23l14.69-9.76Z"/><path class="cls-5" d="M264.32,556.82a17.42,17.42,0,0,1-11-3.55,22,22,0,0,1-7-10.3,49,49,0,0,1-2.41-16.34,48.28,48.28,0,0,1,2.43-16.29,22.2,22.2,0,0,1,7-10.33,18.72,18.72,0,0,1,22,0,22.2,22.2,0,0,1,7,10.33,48.3,48.3,0,0,1,2.42,16.29A48.79,48.79,0,0,1,282.34,543a21.88,21.88,0,0,1-7,10.3A17.44,17.44,0,0,1,264.32,556.82Zm0-6.32c4.29,0,7.61-2.06,10-6.19s3.56-10,3.56-17.68a45.12,45.12,0,0,0-1.63-13,18.14,18.14,0,0,0-4.64-8.18,10.35,10.35,0,0,0-7.28-2.81q-6.37,0-10,6.27t-3.59,17.73a45.49,45.49,0,0,0,1.61,13,17.68,17.68,0,0,0,4.64,8.12A10.36,10.36,0,0,0,264.32,550.5Z"/><path class="cls-5" d="M244.57,630.84H233.66V595.51h11.39a17.29,17.29,0,0,1,8.8,2.11,13.94,13.94,0,0,1,5.6,6.06,23.87,23.87,0,0,1,0,18.92,14,14,0,0,1-5.73,6.11A18.31,18.31,0,0,1,244.57,630.84Zm-6.63-3.8h6.35a14.13,14.13,0,0,0,7.26-1.69,10.44,10.44,0,0,0,4.3-4.81,20.28,20.28,0,0,0,0-14.81,10.45,10.45,0,0,0-4.18-4.76,13.26,13.26,0,0,0-6.92-1.67h-6.83Z"/><path class="cls-5" d="M298.39,613.17a21.44,21.44,0,0,1-2,9.66,15,15,0,0,1-5.54,6.28,15.71,15.71,0,0,1-16.07,0,15,15,0,0,1-5.54-6.28,24.11,24.11,0,0,1,0-19.32,15.17,15.17,0,0,1,5.54-6.28,15.77,15.77,0,0,1,16.07,0,15.17,15.17,0,0,1,5.54,6.28A21.5,21.5,0,0,1,298.39,613.17Zm-4.14,0a17.62,17.62,0,0,0-1.53-7.74,11.18,11.18,0,0,0-4.12-4.78,11.21,11.21,0,0,0-11.61,0,11.11,11.11,0,0,0-4.12,4.78,20.37,20.37,0,0,0,0,15.49A11.17,11.17,0,0,0,277,625.7a11.21,11.21,0,0,0,11.61,0,11.24,11.24,0,0,0,4.12-4.78A17.7,17.7,0,0,0,294.25,613.17Z"/><path class="cls-5" d="M312,630.84l-9.66-35.33h4.35l7.38,28.77h.35l7.52-28.77h4.83l7.52,28.77h.35L342,595.51h4.35l-9.66,35.33h-4.42l-7.8-28.16h-.27l-7.8,28.16Z"/><path class="cls-5" d="M379.68,595.51v35.33h-4.14L356.28,603.1h-.34v27.74h-4.28V595.51h4.14l19.32,27.81h.35V595.51Z"/><path class="cls-5" d="M269.23,421.46h4.28v23.39a12.27,12.27,0,0,1-1.7,6.46,12,12,0,0,1-4.78,4.47,16.94,16.94,0,0,1-14.5,0,12,12,0,0,1-4.78-4.47,12.27,12.27,0,0,1-1.7-6.46V421.46h4.28v23a9.15,9.15,0,0,0,1.14,4.6,8,8,0,0,0,3.25,3.16,11.73,11.73,0,0,0,10.13,0,8,8,0,0,0,3.25-3.16,9.15,9.15,0,0,0,1.13-4.6Z"/><path class="cls-5" d="M282.07,456.79V421.46H294a13.67,13.67,0,0,1,6.8,1.49,9.42,9.42,0,0,1,3.93,4,13.27,13.27,0,0,1,0,11.33,9.41,9.41,0,0,1-3.9,4.06,13.49,13.49,0,0,1-6.77,1.51h-8.55v-3.79h8.42a9.16,9.16,0,0,0,4.57-1,5.91,5.91,0,0,0,2.51-2.66,9.65,9.65,0,0,0,0-7.6,5.79,5.79,0,0,0-2.53-2.63,9.56,9.56,0,0,0-4.62-1h-7.52v31.54Z"/><path class="cls-5" d="M593.36,325.29v-5.16l19.4-21.24q3.42-3.74,5.63-6.5a24.23,24.23,0,0,0,3.28-5.23,12.62,12.62,0,0,0,1.08-5.15,9.7,9.7,0,0,0-1.48-5.37,9.88,9.88,0,0,0-4-3.5,13.1,13.1,0,0,0-5.74-1.23,11.94,11.94,0,0,0-5.9,1.39,9.69,9.69,0,0,0-3.88,3.89,12.13,12.13,0,0,0-1.36,5.86h-6.77A17,17,0,0,1,596,274a16.51,16.51,0,0,1,6.5-6.09,19.53,19.53,0,0,1,9.26-2.18,18.81,18.81,0,0,1,9.15,2.18,16.5,16.5,0,0,1,6.26,5.88,15.5,15.5,0,0,1,2.27,8.24,17.74,17.74,0,0,1-1.17,6.33,28.22,28.22,0,0,1-4,6.86q-2.87,3.78-7.91,9.2l-13.2,14.12V319h27.32v6.31Z"/><path class="cls-5" d="M718.14,396v-5.85L744,349.31h4.25v9.07h-2.87l-19.52,30.88v.46h34.79V396Zm27.67,12.06V349.31h6.77v58.78Z"/><path class="cls-5" d="M786.63,556a22,22,0,0,1-7.23-1.38,17.3,17.3,0,0,1-6.6-4.46,22.8,22.8,0,0,1-4.8-8.53,43.27,43.27,0,0,1-1.8-13.53,59.41,59.41,0,0,1,1.46-13.91A31.71,31.71,0,0,1,771.91,504a19,19,0,0,1,6.73-6.31,18.24,18.24,0,0,1,8.91-2.16,19,19,0,0,1,8.8,2,17.07,17.07,0,0,1,6.3,5.5,19.33,19.33,0,0,1,3.15,8.14h-7a13.1,13.1,0,0,0-3.79-6.68,10.48,10.48,0,0,0-7.46-2.62,12.23,12.23,0,0,0-10.75,5.95q-3.91,6-3.95,16.78h.46a17.22,17.22,0,0,1,8.76-6.86,17.15,17.15,0,0,1,5.71-1,17.66,17.66,0,0,1,9.24,2.51,18.92,18.92,0,0,1,6.72,6.92,20,20,0,0,1,2.52,10.09,20.58,20.58,0,0,1-2.44,10,18.44,18.44,0,0,1-6.84,7.18A19.38,19.38,0,0,1,786.63,556Zm0-6.32a11.94,11.94,0,0,0,6.5-1.81,13,13,0,0,0,4.56-4.85,14.45,14.45,0,0,0,.06-13.41,12.56,12.56,0,0,0-4.45-4.78,11.79,11.79,0,0,0-6.44-1.78,12.18,12.18,0,0,0-5.08,1.07,13.13,13.13,0,0,0-4.12,3,13.91,13.91,0,0,0-2.77,4.26,12.87,12.87,0,0,0-1,5,13.53,13.53,0,0,0,1.65,6.55,13.36,13.36,0,0,0,4.53,4.91A11.86,11.86,0,0,0,786.63,549.7Z"/><path class="cls-5" d="M739.27,698.79a20.18,20.18,0,0,1-9.1-2,16.88,16.88,0,0,1-6.49-5.51,15.1,15.1,0,0,1-2.67-8h6.89a9.4,9.4,0,0,0,3.63,6.59,12,12,0,0,0,7.74,2.6,12.27,12.27,0,0,0,6.44-1.7,12,12,0,0,0,4.45-4.66,14.84,14.84,0,0,0-.06-13.6,12.51,12.51,0,0,0-4.6-4.78,13,13,0,0,0-6.69-1.78,18.42,18.42,0,0,0-5.54.82,15.54,15.54,0,0,0-4.68,2.16l-6.66-.8,3.56-28.93H756v6.31H731.46l-2.07,17.34h.35a15.1,15.1,0,0,1,4.53-2.38,17,17,0,0,1,5.69-1,18,18,0,0,1,16.28,9.58,20.88,20.88,0,0,1,2.43,10.16,20,20,0,0,1-2.51,10,18.53,18.53,0,0,1-6.9,6.94A19.63,19.63,0,0,1,739.27,698.79Z"/><path class="cls-5" d="M587.17,789.89v-5.17l19.4-21.24q3.42-3.72,5.63-6.5a24,24,0,0,0,3.29-5.22,12.81,12.81,0,0,0,1.07-5.15,9.57,9.57,0,0,0-1.48-5.37,9.75,9.75,0,0,0-4-3.5,13,13,0,0,0-5.74-1.23,12,12,0,0,0-5.9,1.39,9.66,9.66,0,0,0-3.87,3.89,12,12,0,0,0-1.36,5.85H587.4a17.14,17.14,0,0,1,2.38-9.07,16.55,16.55,0,0,1,6.5-6.08,19.44,19.44,0,0,1,9.26-2.18,18.74,18.74,0,0,1,9.16,2.18,16.32,16.32,0,0,1,6.25,5.88,15.47,15.47,0,0,1,2.27,8.24,18,18,0,0,1-1.16,6.33,28.82,28.82,0,0,1-4,6.86q-2.85,3.76-7.91,9.19l-13.2,14.13v.45h27.32v6.32Z"/><path class="cls-5" d="M291.3,723.85a5.17,5.17,0,1,1,3.64-8.81,5.13,5.13,0,0,1,.82,6.23,5.49,5.49,0,0,1-1.86,1.88A5,5,0,0,1,291.3,723.85Z"/><path class="cls-5" d="M325.74,724.2a20.18,20.18,0,0,1-9.1-2,17,17,0,0,1-6.49-5.51,15.07,15.07,0,0,1-2.66-8h6.88a9.38,9.38,0,0,0,3.63,6.58,12,12,0,0,0,7.74,2.6,12.26,12.26,0,0,0,6.44-1.69,12,12,0,0,0,4.45-4.67,14.84,14.84,0,0,0-.06-13.6,12.58,12.58,0,0,0-4.6-4.78,13,13,0,0,0-6.69-1.78,18.79,18.79,0,0,0-5.54.82,15.65,15.65,0,0,0-4.68,2.17l-6.66-.81L312,664.61H342.5v6.32H317.93l-2.06,17.33h.34a15.51,15.51,0,0,1,4.54-2.38,17.19,17.19,0,0,1,5.68-1,18.06,18.06,0,0,1,16.29,9.59,20.93,20.93,0,0,1,2.42,10.16,19.94,19.94,0,0,1-2.51,10,18.49,18.49,0,0,1-6.9,6.95A19.63,19.63,0,0,1,325.74,724.2Z"/><path class="cls-5" d="M451.73,733.37v58.78h-7.12V740.84h-.34l-14.35,9.52v-7.23l14.69-9.76Z"/><path class="cls-5" d="M282.68,377.48a5.18,5.18,0,1,1,4.46-2.58,5.43,5.43,0,0,1-1.87,1.88A4.89,4.89,0,0,1,282.68,377.48Z"/><path class="cls-5" d="M317.12,377.83a20.18,20.18,0,0,1-9.1-2,17,17,0,0,1-6.49-5.51,15.16,15.16,0,0,1-2.67-8h6.89a9.38,9.38,0,0,0,3.63,6.58,11.93,11.93,0,0,0,7.74,2.6,12.26,12.26,0,0,0,6.44-1.69,12,12,0,0,0,4.45-4.67,14.84,14.84,0,0,0-.06-13.6,12.58,12.58,0,0,0-4.6-4.78,13,13,0,0,0-6.69-1.78,18.75,18.75,0,0,0-5.54.82,15.9,15.9,0,0,0-4.68,2.17l-6.66-.81,3.56-28.93h30.54v6.32H309.31l-2.07,17.33h.35a15.45,15.45,0,0,1,4.53-2.38,17.29,17.29,0,0,1,5.69-.95,18,18,0,0,1,16.28,9.59,20.85,20.85,0,0,1,2.43,10.16,19.94,19.94,0,0,1-2.51,10,18.56,18.56,0,0,1-6.9,7A19.63,19.63,0,0,1,317.12,377.83Z"/><line class="cls-6" x1="854.97" y1="469.6" x2="854.97" y2="577.4"/></g></g></svg>