<svg width="1064" height="1064" viewBox="0 0 1064 1064" fill="none" xmlns="http://www.w3.org/2000/svg">
<path d="M958.98 0H104.17C46.6385 0 0 46.6385 0 104.17V958.98C0 1016.51 46.6385 1063.15 104.17 1063.15H958.98C1016.51 1063.15 1063.15 1016.51 1063.15 958.98V104.17C1063.15 46.6385 1016.51 0 958.98 0Z" fill="#262626"/>
<path d="M533.38 1028.6C807.783 1028.6 1030.23 806.153 1030.23 531.75C1030.23 257.347 807.783 34.8999 533.38 34.8999C258.977 34.8999 36.53 257.347 36.53 531.75C36.53 806.153 258.977 1028.6 533.38 1028.6Z" fill="black"/>
<path d="M533.38 956.09C767.737 956.09 957.72 766.106 957.72 531.75C957.72 297.393 767.737 107.41 533.38 107.41C299.024 107.41 109.04 297.393 109.04 531.75C109.04 766.106 299.024 956.09 533.38 956.09Z" fill="#282828"/>
<path d="M531.22 140L531.69 175.81" stroke="white" stroke-width="12" stroke-miterlimit="10"/>
<path d="M825.86 795.19L799.38 771.08" stroke="white" stroke-width="12" stroke-miterlimit="10"/>
<path d="M536.33 923.13V887.32" stroke="white" stroke-width="12" stroke-miterlimit="10"/>
<path d="M427.54 818.57L398.14 898.57" stroke="white" stroke-width="12" stroke-miterlimit="10"/>
<path d="M274.35 697.98L203.5 745.34" stroke="white" stroke-miterlimit="10"/>
<path d="M205 747.49L278.5 697.66" stroke="white" stroke-width="12" stroke-miterlimit="10"/>
<path d="M136 522.92H224.8" stroke="white" stroke-width="12" stroke-miterlimit="10"/>
<path d="M199.92 305.92L274.54 354.07" stroke="white" stroke-width="12" stroke-miterlimit="10"/>
<path d="M396.43 147.92L427.43 231.13" stroke="white" stroke-width="12" stroke-miterlimit="10"/>
<path d="M347.36 874.52L364.64 843.15" stroke="white" stroke-width="12" stroke-miterlimit="10"/>
<path d="M308.13 849.77L329 820.67" stroke="white" stroke-width="12" stroke-miterlimit="10"/>
<path d="M269.75 818.38L294.12 792.14" stroke="white" stroke-width="12" stroke-miterlimit="10"/>
<path d="M242.05 789.92L269 766.25" stroke="white" stroke-width="12" stroke-miterlimit="10"/>
<path d="M183.54 701.48L215.8 685.92" stroke="white" stroke-width="12" stroke-miterlimit="10"/>
<path d="M165.92 658.58L199.8 646.92" stroke="white" stroke-width="12" stroke-miterlimit="10"/>
<path d="M152.84 610.74L187.91 603.5" stroke="white" stroke-width="12" stroke-miterlimit="10"/>
<path d="M146.79 571.47L182.41 567.82" stroke="white" stroke-width="12" stroke-miterlimit="10"/>
<path d="M148.62 476.57L184.08 481.57" stroke="white" stroke-width="12" stroke-miterlimit="10"/>
<path d="M157.85 431.11L192.46 440.3" stroke="white" stroke-width="12" stroke-miterlimit="10"/>
<path d="M173.57 384.08L206.75 397.57" stroke="white" stroke-width="12" stroke-miterlimit="10"/>
<path d="M190.39 348.08L222 364.85" stroke="white" stroke-width="12" stroke-miterlimit="10"/>
<path d="M244.81 270.11L271.47 294.01" stroke="white" stroke-width="12" stroke-miterlimit="10"/>
<path d="M277.77 237.47L301.41 264.36" stroke="white" stroke-width="12" stroke-miterlimit="10"/>
<path d="M317 207.15L337.06 236.82" stroke="white" stroke-width="12" stroke-miterlimit="10"/>
<path d="M351 186.59L368 218.14" stroke="white" stroke-width="12" stroke-miterlimit="10"/>
<path d="M269 556.81C265.037 556.91 261.157 555.658 258 553.26C254.723 550.573 252.293 546.996 251 542.96C249.278 537.689 248.463 532.164 248.59 526.62C248.453 521.092 249.268 515.581 251 510.33C252.299 506.289 254.728 502.704 258 500C261.198 497.679 265.048 496.43 269 496.43C272.951 496.43 276.802 497.679 280 500C283.272 502.704 285.701 506.289 287 510.33C288.731 515.582 289.549 521.092 289.42 526.62C289.549 532.174 288.73 537.71 287 542.99C285.713 547.028 283.281 550.606 280 553.29C276.838 555.675 272.959 556.916 269 556.81ZM269 550.49C273.29 550.49 276.61 548.43 279 544.3C281.39 540.17 282.56 534.3 282.56 526.62C282.65 522.231 282.101 517.851 280.93 513.62C280.131 510.532 278.53 507.71 276.29 505.44C274.323 503.589 271.71 502.581 269.01 502.63C264.763 502.63 261.43 504.72 259.01 508.9C256.59 513.08 255.393 518.99 255.42 526.63C255.328 531.018 255.871 535.397 257.03 539.63C257.819 542.704 259.422 545.509 261.67 547.75C263.66 549.588 266.292 550.572 269 550.49Z" fill="white"/>
<path d="M249.21 630.83H238.3V595.5H249.69C252.759 595.41 255.796 596.138 258.49 597.61C260.927 599.017 262.88 601.13 264.09 603.67C265.383 606.656 266.05 609.876 266.05 613.13C266.05 616.384 265.383 619.604 264.09 622.59C262.848 625.164 260.849 627.296 258.36 628.7C255.547 630.193 252.393 630.927 249.21 630.83ZM242.58 627.03H248.93C251.458 627.128 253.965 626.544 256.19 625.34C258.097 624.233 259.602 622.548 260.49 620.53C262.36 615.77 262.36 610.48 260.49 605.72C259.623 603.739 258.162 602.076 256.31 600.96C254.2 599.779 251.806 599.201 249.39 599.29H242.56L242.58 627.03Z" fill="white"/>
<path d="M303 613.16C303.092 616.492 302.407 619.799 301 622.82C299.787 625.397 297.865 627.575 295.46 629.1C293.029 630.547 290.253 631.31 287.425 631.31C284.597 631.31 281.821 630.547 279.39 629.1C276.985 627.575 275.063 625.397 273.85 622.82C272.518 619.774 271.83 616.485 271.83 613.16C271.83 609.835 272.518 606.546 273.85 603.5C275.07 600.928 276.99 598.752 279.39 597.22C281.823 595.78 284.598 595.02 287.425 595.02C290.252 595.02 293.027 595.78 295.46 597.22C297.86 598.752 299.78 600.928 301 603.5C302.407 606.521 303.092 609.828 303 613.16ZM298.86 613.16C298.941 610.498 298.418 607.851 297.33 605.42C296.68 604.01 295.739 602.753 294.568 601.732C293.397 600.712 292.024 599.951 290.538 599.499C289.052 599.047 287.487 598.916 285.947 599.112C284.406 599.309 282.925 599.83 281.6 600.64C279.791 601.799 278.36 603.46 277.48 605.42C275.44 610.382 275.44 615.948 277.48 620.91C278.13 622.322 279.071 623.58 280.243 624.602C281.414 625.623 282.789 626.385 284.276 626.836C285.763 627.288 287.329 627.419 288.871 627.222C290.413 627.024 291.895 626.502 293.22 625.69C295.019 624.52 296.448 622.862 297.34 620.91C298.42 618.473 298.939 615.824 298.86 613.16Z" fill="white"/>
<path d="M316.64 630.83L307 595.5H311.35L318.73 624.27H319.08L326.6 595.5H331.43L338.95 624.27H339.3L346.66 595.5H351L341.34 630.83H336.92L329.12 602.67H328.85L321 630.83H316.64Z" fill="white"/>
<path d="M384.32 595.5V630.83H380.18L360.92 603.09H360.58V630.83H356.3V595.5H360.44L379.76 623.31H380.11V595.5H384.32Z" fill="white"/>
<path d="M273.87 421.45H278.15V444.84C278.189 447.109 277.6 449.344 276.45 451.3C275.302 453.204 273.647 454.752 271.67 455.77C269.404 456.843 266.928 457.4 264.42 457.4C261.912 457.4 259.436 456.843 257.17 455.77C255.193 454.752 253.538 453.204 252.39 451.3C251.24 449.344 250.651 447.109 250.69 444.84V421.45H255V444.45C254.968 446.057 255.362 447.644 256.14 449.05C256.901 450.391 258.028 451.487 259.39 452.21C260.971 452.967 262.702 453.36 264.455 453.36C266.208 453.36 267.939 452.967 269.52 452.21C270.885 451.492 272.014 450.395 272.77 449.05C273.54 447.641 273.929 446.055 273.9 444.45L273.87 421.45Z" fill="white"/>
<path d="M286.71 456.78V421.45H298.64C300.998 421.348 303.341 421.862 305.44 422.94C307.128 423.84 308.5 425.236 309.37 426.94C310.206 428.711 310.64 430.646 310.64 432.605C310.64 434.564 310.206 436.499 309.37 438.27C308.514 439.989 307.153 441.405 305.47 442.33C303.382 443.41 301.049 443.93 298.7 443.84H290.15V440.05H298.57C300.154 440.117 301.729 439.772 303.14 439.05C304.239 438.453 305.118 437.521 305.65 436.39C306.164 435.189 306.43 433.896 306.43 432.59C306.43 431.284 306.164 429.991 305.65 428.79C305.115 427.662 304.226 426.739 303.12 426.16C301.689 425.442 300.1 425.098 298.5 425.16H291V456.7L286.71 456.78Z" fill="white"/>
<path d="M638.4 818.25L667.8 898.25" stroke="white" stroke-width="12" stroke-miterlimit="10"/>
<path d="M791.59 697.66L862.44 745.02" stroke="white" stroke-miterlimit="10"/>
<path d="M861 747.17L787.5 697.34" stroke="white" stroke-width="12" stroke-miterlimit="10"/>
<path d="M929.94 522.59H841.14" stroke="white" stroke-width="12" stroke-miterlimit="10"/>
<path d="M866 305.61L791.4 353.76" stroke="white" stroke-width="12" stroke-miterlimit="10"/>
<path d="M669.51 147.58L638.51 230.79" stroke="white" stroke-width="12" stroke-miterlimit="10"/>
<path d="M718.58 874.2L701.3 842.83" stroke="white" stroke-width="12" stroke-miterlimit="10"/>
<path d="M757.81 849.45L736.94 820.35" stroke="white" stroke-width="12" stroke-miterlimit="10"/>
<path d="M796.19 818.06L771.82 791.82" stroke="white" stroke-width="12" stroke-miterlimit="10"/>
<path d="M823.89 789.56L797 765.92" stroke="white" stroke-width="12" stroke-miterlimit="10"/>
<path d="M882.4 701.16L850.14 685.62" stroke="white" stroke-width="12" stroke-miterlimit="10"/>
<path d="M900 658.26L866.12 646.64" stroke="white" stroke-width="12" stroke-miterlimit="10"/>
<path d="M913.1 610.42L878 603.18" stroke="white" stroke-width="12" stroke-miterlimit="10"/>
<path d="M919.15 571.15L883.53 567.5" stroke="white" stroke-width="12" stroke-miterlimit="10"/>
<path d="M917.32 476.25L881.86 481.25" stroke="white" stroke-width="12" stroke-miterlimit="10"/>
<path d="M908.09 430.79L873.48 439.98" stroke="white" stroke-width="12" stroke-miterlimit="10"/>
<path d="M892.37 383.76L859.19 397.25" stroke="white" stroke-width="12" stroke-miterlimit="10"/>
<path d="M875.55 347.76L843.92 364.53" stroke="white" stroke-width="12" stroke-miterlimit="10"/>
<path d="M821.13 269.79L794.47 293.69" stroke="white" stroke-width="12" stroke-miterlimit="10"/>
<path d="M788.17 237.15L764.53 264.04" stroke="white" stroke-width="12" stroke-miterlimit="10"/>
<path d="M748.93 206.83L728.93 236.5" stroke="white" stroke-width="12" stroke-miterlimit="10"/>
<path d="M714.92 186.27L698 217.82" stroke="white" stroke-width="12" stroke-miterlimit="10"/>
<path d="M302.041 357.049L304.57 332.234H330.068V338.079H309.937L308.433 351.648C310.871 350.213 313.639 349.495 316.738 349.495C321.273 349.495 324.873 350.999 327.539 354.007C330.205 356.992 331.538 361.036 331.538 366.141C331.538 371.268 330.148 375.312 327.368 378.274C324.611 381.214 320.749 382.684 315.781 382.684C311.383 382.684 307.795 381.465 305.015 379.026C302.235 376.588 300.651 373.216 300.264 368.909H306.245C306.632 371.757 307.646 373.911 309.287 375.369C310.928 376.805 313.092 377.522 315.781 377.522C318.721 377.522 321.022 376.52 322.686 374.515C324.372 372.509 325.215 369.741 325.215 366.209C325.215 362.882 324.303 360.216 322.48 358.211C320.68 356.183 318.276 355.169 315.269 355.169C312.511 355.169 310.347 355.773 308.774 356.98L307.1 358.348L302.041 357.049Z" fill="white"/>
<path d="M301.041 697.049L303.57 672.234H329.068V678.079H308.937L307.433 691.648C309.871 690.213 312.639 689.495 315.738 689.495C320.273 689.495 323.873 690.999 326.539 694.007C329.205 696.992 330.538 701.036 330.538 706.141C330.538 711.268 329.148 715.312 326.368 718.274C323.611 721.214 319.749 722.684 314.781 722.684C310.383 722.684 306.795 721.465 304.015 719.026C301.235 716.588 299.651 713.216 299.264 708.909H305.245C305.632 711.757 306.646 713.911 308.287 715.369C309.928 716.805 312.092 717.522 314.781 717.522C317.721 717.522 320.022 716.52 321.686 714.515C323.372 712.509 324.215 709.741 324.215 706.209C324.215 702.882 323.303 700.216 321.48 698.211C319.68 696.183 317.276 695.169 314.269 695.169C311.511 695.169 309.347 695.773 307.774 696.98L306.1 698.348L301.041 697.049Z" fill="white"/>
<path d="M412.917 294H406.56V251.856L393.811 256.539V250.797L411.926 243.995H412.917V294ZM462.648 272.774C462.648 280.18 461.384 285.683 458.854 289.283C456.325 292.883 452.372 294.684 446.994 294.684C441.685 294.684 437.754 292.929 435.202 289.42C432.65 285.888 431.328 280.624 431.237 273.629V265.187C431.237 257.872 432.502 252.438 435.031 248.883C437.561 245.328 441.525 243.551 446.926 243.551C452.281 243.551 456.223 245.271 458.752 248.712C461.281 252.13 462.58 257.416 462.648 264.571V272.774ZM456.325 264.127C456.325 258.772 455.573 254.876 454.069 252.438C452.565 249.977 450.184 248.746 446.926 248.746C443.69 248.746 441.332 249.965 439.851 252.403C438.369 254.841 437.606 258.59 437.561 263.648V273.766C437.561 279.143 438.335 283.119 439.885 285.694C441.457 288.246 443.827 289.522 446.994 289.522C450.116 289.522 452.429 288.315 453.933 285.899C455.459 283.484 456.257 279.679 456.325 274.483V264.127Z" fill="white"/>
<path d="M412.917 792H406.56V749.856L393.811 754.539V748.797L411.926 741.995H412.917V792ZM462.648 770.774C462.648 778.18 461.384 783.683 458.854 787.283C456.325 790.883 452.372 792.684 446.994 792.684C441.685 792.684 437.754 790.929 435.202 787.42C432.65 783.888 431.328 778.624 431.237 771.629V763.187C431.237 755.872 432.502 750.438 435.031 746.883C437.561 743.328 441.525 741.551 446.926 741.551C452.281 741.551 456.223 743.271 458.752 746.712C461.281 750.13 462.58 755.416 462.648 762.571V770.774ZM456.325 762.127C456.325 756.772 455.573 752.876 454.069 750.438C452.565 747.977 450.184 746.746 446.926 746.746C443.69 746.746 441.332 747.965 439.851 750.403C438.369 752.841 437.606 756.59 437.561 761.648V771.766C437.561 777.143 438.335 781.119 439.885 783.694C441.457 786.246 443.827 787.522 446.994 787.522C450.116 787.522 452.429 786.315 453.933 783.899C455.459 781.484 456.257 777.679 456.325 772.483V762.127Z" fill="white"/>
<path d="M615.917 294H609.56V251.856L596.811 256.539V250.797L614.926 243.995H615.917V294ZM637.348 269.049L639.877 244.234H665.375V250.079H645.243L643.739 263.648C646.177 262.213 648.946 261.495 652.045 261.495C656.579 261.495 660.18 262.999 662.846 266.007C665.512 268.992 666.845 273.036 666.845 278.141C666.845 283.268 665.455 287.312 662.675 290.274C659.918 293.214 656.055 294.684 651.088 294.684C646.69 294.684 643.101 293.465 640.321 291.026C637.541 288.588 635.958 285.216 635.57 280.909H641.552C641.939 283.757 642.953 285.911 644.594 287.369C646.234 288.805 648.399 289.522 651.088 289.522C654.027 289.522 656.329 288.52 657.992 286.515C659.678 284.509 660.521 281.741 660.521 278.209C660.521 274.882 659.61 272.216 657.787 270.211C655.987 268.183 653.583 267.169 650.575 267.169C647.818 267.169 645.653 267.773 644.081 268.98L642.406 270.348L637.348 269.049Z" fill="white"/>
<path d="M615.917 792H609.56V749.856L596.811 754.539V748.797L614.926 741.995H615.917V792ZM637.348 767.049L639.877 742.234H665.375V748.079H645.243L643.739 761.648C646.177 760.213 648.946 759.495 652.045 759.495C656.579 759.495 660.18 760.999 662.846 764.007C665.512 766.992 666.845 771.036 666.845 776.141C666.845 781.268 665.455 785.312 662.675 788.274C659.918 791.214 656.055 792.684 651.088 792.684C646.69 792.684 643.101 791.465 640.321 789.026C637.541 786.588 635.958 783.216 635.57 778.909H641.552C641.939 781.757 642.953 783.911 644.594 785.369C646.234 786.805 648.399 787.522 651.088 787.522C654.027 787.522 656.329 786.52 657.992 784.515C659.678 782.509 660.521 779.741 660.521 776.209C660.521 772.882 659.61 770.216 657.787 768.211C655.987 766.183 653.583 765.169 650.575 765.169C647.818 765.169 645.653 765.773 644.081 766.98L642.406 768.348L637.348 767.049Z" fill="white"/>
<path d="M737.743 384H705.136V379.454L722.362 360.313C724.914 357.42 726.669 355.073 727.626 353.272C728.606 351.45 729.096 349.57 729.096 347.633C729.096 345.035 728.31 342.905 726.737 341.241C725.165 339.578 723.069 338.746 720.448 338.746C717.304 338.746 714.854 339.646 713.1 341.446C711.368 343.224 710.502 345.707 710.502 348.897H704.179C704.179 344.317 705.648 340.615 708.588 337.789C711.55 334.964 715.504 333.551 720.448 333.551C725.074 333.551 728.731 334.77 731.42 337.208C734.109 339.623 735.453 342.848 735.453 346.881C735.453 351.78 732.331 357.613 726.088 364.381L712.758 378.839H737.743V384ZM775.648 362.774C775.648 370.18 774.384 375.683 771.854 379.283C769.325 382.883 765.372 384.684 759.994 384.684C754.685 384.684 750.754 382.929 748.202 379.42C745.65 375.888 744.328 370.624 744.237 363.629V355.187C744.237 347.872 745.502 342.438 748.031 338.883C750.561 335.328 754.525 333.551 759.926 333.551C765.281 333.551 769.223 335.271 771.752 338.712C774.281 342.13 775.58 347.416 775.648 354.571V362.774ZM769.325 354.127C769.325 348.772 768.573 344.876 767.069 342.438C765.565 339.977 763.184 338.746 759.926 338.746C756.69 338.746 754.332 339.965 752.851 342.403C751.369 344.841 750.606 348.59 750.561 353.648V363.766C750.561 369.143 751.335 373.119 752.885 375.694C754.457 378.246 756.827 379.522 759.994 379.522C763.116 379.522 765.429 378.315 766.933 375.899C768.459 373.484 769.257 369.679 769.325 364.483V354.127Z" fill="white"/>
<path d="M737.743 696H705.136V691.454L722.362 672.313C724.914 669.42 726.669 667.073 727.626 665.272C728.606 663.45 729.096 661.57 729.096 659.633C729.096 657.035 728.31 654.905 726.737 653.241C725.165 651.578 723.069 650.746 720.448 650.746C717.304 650.746 714.854 651.646 713.1 653.446C711.368 655.224 710.502 657.707 710.502 660.897H704.179C704.179 656.317 705.648 652.615 708.588 649.789C711.55 646.964 715.504 645.551 720.448 645.551C725.074 645.551 728.731 646.77 731.42 649.208C734.109 651.623 735.453 654.848 735.453 658.881C735.453 663.78 732.331 669.613 726.088 676.381L712.758 690.839H737.743V696ZM775.648 674.774C775.648 682.18 774.384 687.683 771.854 691.283C769.325 694.883 765.372 696.684 759.994 696.684C754.685 696.684 750.754 694.929 748.202 691.42C745.65 687.888 744.328 682.624 744.237 675.629V667.187C744.237 659.872 745.502 654.438 748.031 650.883C750.561 647.328 754.525 645.551 759.926 645.551C765.281 645.551 769.223 647.271 771.752 650.712C774.281 654.13 775.58 659.416 775.648 666.571V674.774ZM769.325 666.127C769.325 660.772 768.573 656.876 767.069 654.438C765.565 651.977 763.184 650.746 759.926 650.746C756.69 650.746 754.332 651.965 752.851 654.403C751.369 656.841 750.606 660.59 750.561 665.648V675.766C750.561 681.143 751.335 685.119 752.885 687.694C754.457 690.246 756.827 691.522 759.994 691.522C763.116 691.522 765.429 690.315 766.933 687.899C768.459 685.484 769.257 681.679 769.325 676.483V666.127Z" fill="white"/>
<path d="M784.743 547H752.136V542.454L769.362 523.313C771.914 520.42 773.669 518.073 774.626 516.272C775.606 514.45 776.096 512.57 776.096 510.633C776.096 508.035 775.31 505.905 773.737 504.241C772.165 502.578 770.069 501.746 767.448 501.746C764.304 501.746 761.854 502.646 760.1 504.446C758.368 506.224 757.502 508.707 757.502 511.897H751.179C751.179 507.317 752.648 503.615 755.588 500.789C758.55 497.964 762.504 496.551 767.448 496.551C772.074 496.551 775.731 497.77 778.42 500.208C781.109 502.623 782.453 505.848 782.453 509.881C782.453 514.78 779.331 520.613 773.088 527.381L759.758 541.839H784.743V547ZM794.348 522.049L796.877 497.234H822.375V503.079H802.243L800.739 516.648C803.177 515.213 805.946 514.495 809.045 514.495C813.579 514.495 817.18 515.999 819.846 519.007C822.512 521.992 823.845 526.036 823.845 531.141C823.845 536.268 822.455 540.312 819.675 543.274C816.918 546.214 813.055 547.684 808.088 547.684C803.69 547.684 800.101 546.465 797.321 544.026C794.541 541.588 792.958 538.216 792.57 533.909H798.552C798.939 536.757 799.953 538.911 801.594 540.369C803.234 541.805 805.399 542.522 808.088 542.522C811.027 542.522 813.329 541.52 814.992 539.515C816.678 537.509 817.521 534.741 817.521 531.209C817.521 527.882 816.61 525.216 814.787 523.211C812.987 521.183 810.583 520.169 807.575 520.169C804.818 520.169 802.653 520.773 801.081 521.98L799.406 523.348L794.348 522.049Z" fill="white"/>
</svg>
