<svg xmlns="http://www.w3.org/2000/svg" xmlns:xlink="http://www.w3.org/1999/xlink" viewBox="0 0 1063.15 1064.6"><defs><style>.cls-1{fill:#fff;}.cls-2{fill:#262626;}.cls-3{clip-path:url(#clip-path);}.cls-4{fill:#1c67ec;stroke-width:21px;}.cls-4,.cls-5{stroke:#fff;}.cls-4,.cls-5,.cls-7{stroke-miterlimit:10;}.cls-5{fill:#824c28;}.cls-6{fill:#231f20;opacity:0.61;}.cls-7{fill:none;stroke:#f6891f;stroke-width:10px;}.cls-8{fill:#121212;}</style><clipPath id="clip-path" transform="translate(0 1.45)"><circle class="cls-1" cx="533.98" cy="531.57" r="424.34"/></clipPath></defs><g id="Layer_2" data-name="Layer 2"><g id="Layer_1-2" data-name="Layer 1"><rect class="cls-2" y="1.45" width="1063.15" height="1063.15" rx="104.17"/><circle cx="531.57" cy="533.03" r="496.85"/><circle class="cls-1" cx="533.98" cy="533.03" r="424.34"/><g class="cls-3"><polygon class="cls-4" points="1019.45 424.26 57.4 634.46 12.98 130.13 458.76 10.64 1019.45 68.86 1019.45 424.26"/><path class="cls-5" d="M153.91,891.57c0-9.19-53.26-268-53.26-268l892.48-195,26.31,259.27-23,337-601,29.11Z" transform="translate(0 1.45)"/><circle class="cls-6" cx="540.98" cy="529.16" r="242.4"/><path class="cls-7" d="M735,526H610s5.22,71.49-65.49,71.49S466.42,526,466.42,526H346.93" transform="translate(0 1.45)"/><line class="cls-7" x1="539.67" y1="523.33" x2="540.98" y2="729.62"/><polygon class="cls-8" points="482.76 662.22 602.25 662.22 846.34 975.75 359.19 993.11 264.21 945.11 482.76 662.22"/></g></g></g></svg>