<svg width="1064" height="1065" viewBox="0 0 1064 1065" fill="none" xmlns="http://www.w3.org/2000/svg">
<path d="M483.31 662.22H602.8L846.89 975.75L359.74 993.11L264.74 945.11L483.31 662.22Z" fill="#121212"/>
<path d="M959.53 1.44995H104.72C77.0924 1.44995 50.5964 12.425 31.0607 31.9606C11.5251 51.4963 0.550049 77.9924 0.550049 105.62V960.43C0.550049 988.058 11.5251 1014.55 31.0607 1034.09C50.5964 1053.63 77.0924 1064.6 104.72 1064.6H959.53C987.158 1064.6 1013.65 1053.63 1033.19 1034.09C1052.72 1014.55 1063.7 988.058 1063.7 960.43V105.62C1063.7 77.9924 1052.72 51.4963 1033.19 31.9606C1013.65 12.425 987.158 1.44995 959.53 1.44995V1.44995ZM534.53 957.37C300.17 957.37 110.19 767.37 110.19 533.03C110.19 298.69 300.19 108.69 534.53 108.69C768.87 108.69 958.87 298.67 958.87 533C958.87 767.33 768.89 957.37 534.53 957.37Z" fill="#262626"/>
<path d="M532.12 36.1799C257.72 36.1799 35.27 258.63 35.27 533C35.27 807.37 257.72 1029.85 532.12 1029.85C806.52 1029.85 1029 807.43 1029 533C1029 258.57 806.52 36.1799 532.12 36.1799ZM534.53 957.37C300.17 957.37 110.19 767.37 110.19 533.03C110.19 298.69 300.19 108.69 534.53 108.69C768.87 108.69 958.87 298.67 958.87 533C958.87 767.33 768.89 957.37 534.53 957.37Z" fill="black"/>
<path opacity="0.61" d="M541.53 771.56C675.41 771.56 783.93 663.03 783.93 529.16C783.93 395.29 675.41 286.76 541.53 286.76C407.65 286.76 299.13 395.29 299.13 529.16C299.13 663.03 407.66 771.56 541.53 771.56Z" fill="#231F20"/>
<path d="M735.55 527.45H610.55C610.55 527.45 615.77 598.94 545.06 598.94C474.35 598.94 467 527.45 467 527.45H347.48" stroke="#F6891F" stroke-width="10" stroke-miterlimit="10"/>
<path d="M540.22 523.33L541.53 729.62" stroke="#F6891F" stroke-width="10" stroke-miterlimit="10"/>
</svg>
