<svg xmlns="http://www.w3.org/2000/svg" viewBox="0 0 1063.15 1063.15"><defs><style>.cls-1{fill:#262626;}.cls-2{fill:#262627;}.cls-3,.cls-4,.cls-5,.cls-7{fill:none;}.cls-3,.cls-5,.cls-7{stroke:#fff;stroke-miterlimit:10;}.cls-3{stroke-width:23px;}.cls-5{stroke-width:6px;}.cls-6{fill:#fff;}.cls-7{stroke-width:10px;}</style></defs><g id="Layer_2" data-name="Layer 2"><g id="Layer_1-2" data-name="Layer 1"><rect class="cls-1" width="1063.15" height="1063.15" rx="104.17"/><circle cx="533.38" cy="531.75" r="496.85"/><circle class="cls-2" cx="533.38" cy="531.75" r="424.34"/><line class="cls-3" x1="344.89" y1="805.05" x2="305.13" y2="860.71"/><line class="cls-4" x1="770.23" y1="209.57" x2="730.47" y2="265.23"/><line class="cls-3" x1="223.06" y1="640.18" x2="158.17" y2="661.84"/><line class="cls-4" x1="917.19" y1="408.44" x2="852.3" y2="430.1"/><line class="cls-3" x1="221.4" y1="435.19" x2="156.18" y2="414.58"/><line class="cls-4" x1="919.18" y1="655.7" x2="853.95" y2="635.09"/><line class="cls-3" x1="340.56" y1="268.38" x2="299.9" y2="213.36"/><line class="cls-4" x1="775.46" y1="856.92" x2="734.8" y2="801.9"/><line class="cls-3" x1="535" y1="203.46" x2="534.45" y2="135.05"/><line class="cls-4" x1="540.91" y1="935.23" x2="540.36" y2="866.82"/><line class="cls-3" x1="730.47" y1="265.23" x2="770.23" y2="209.57"/><line class="cls-4" x1="305.13" y1="860.71" x2="344.89" y2="805.05"/><line class="cls-3" x1="852.3" y1="430.1" x2="917.19" y2="408.44"/><line class="cls-4" x1="158.17" y1="661.84" x2="223.06" y2="640.18"/><line class="cls-3" x1="853.95" y1="635.09" x2="919.18" y2="655.7"/><line class="cls-4" x1="156.18" y1="414.58" x2="221.4" y2="435.19"/><line class="cls-3" x1="734.8" y1="801.9" x2="775.46" y2="856.92"/><line class="cls-4" x1="299.9" y1="213.36" x2="340.56" y2="268.38"/><line class="cls-5" x1="293.46" y1="802.57" x2="270.33" y2="829.41"/><line class="cls-4" x1="792.99" y1="222.56" x2="777.22" y2="240.87"/><line class="cls-5" x1="261.52" y1="771.47" x2="235.3" y2="795.3"/><line class="cls-4" x1="828.02" y1="256.67" x2="810.14" y2="272.92"/><line class="cls-5" x1="233.62" y1="736.72" x2="204.69" y2="757.18"/><line class="cls-4" x1="858.64" y1="294.79" x2="838.9" y2="308.74"/><line class="cls-5" x1="210.16" y1="698.83" x2="178.95" y2="715.61"/><line class="cls-5" x1="177.89" y1="615.92" x2="143.56" y2="624.64"/><line class="cls-5" x1="169.57" y1="572.13" x2="134.43" y2="576.61"/><line class="cls-5" x1="166.65" y1="527.66" x2="131.22" y2="527.82"/><line class="cls-5" x1="169.16" y1="483.16" x2="133.98" y2="479.01"/><line class="cls-5" x1="190.29" y1="396.74" x2="157.16" y2="384.19"/><line class="cls-5" x1="208.59" y1="356.1" x2="177.23" y2="339.61"/><line class="cls-5" x1="231.7" y1="317.99" x2="202.58" y2="297.8"/><line class="cls-5" x1="259.28" y1="282.98" x2="232.84" y2="259.4"/><line class="cls-5" x1="290.93" y1="251.6" x2="267.56" y2="224.97"/><line class="cls-5" x1="364.46" y1="201.51" x2="348.23" y2="170.02"/><line class="cls-5" x1="405.25" y1="183.55" x2="392.98" y2="150.31"/><line class="cls-5" x1="447.92" y1="170.7" x2="439.79" y2="136.21"/><line class="cls-5" x1="491.84" y1="163.14" x2="487.98" y2="127.92"/><line class="cls-5" x1="580.81" y1="164.28" x2="585.57" y2="129.18"/><line class="cls-5" x1="624.52" y1="172.97" x2="633.53" y2="138.7"/><line class="cls-5" x1="666.85" y1="186.92" x2="679.97" y2="154.01"/><line class="cls-5" x1="707.16" y1="205.92" x2="724.2" y2="174.85"/><line class="cls-5" x1="779.38" y1="257.88" x2="803.42" y2="231.86"/><line class="cls-5" x1="810.21" y1="290.07" x2="837.24" y2="267.17"/><line class="cls-5" x1="836.88" y1="325.77" x2="866.51" y2="306.34"/><line class="cls-5" x1="859.01" y1="364.46" x2="890.78" y2="348.79"/><line class="cls-5" x1="888.36" y1="448.45" x2="922.98" y2="440.93"/><line class="cls-5" x1="895.15" y1="492.5" x2="930.43" y2="489.25"/><line class="cls-5" x1="896.52" y1="537.05" x2="931.93" y2="538.12"/><line class="cls-5" x1="892.45" y1="581.43" x2="927.47" y2="586.81"/><line class="cls-5" x1="848.62" y1="707.04" x2="879.38" y2="724.61"/><line class="cls-5" x1="824.19" y1="744.32" x2="852.58" y2="765.51"/><line class="cls-5" x1="795.4" y1="778.34" x2="821" y2="802.83"/><line class="cls-4" x1="884.38" y1="336.36" x2="863.09" y2="347.81"/><path class="cls-6" d="M476.83,444.69v-35h11.84a14.43,14.43,0,0,1,6.73,1.39,9,9,0,0,1,3.9,3.83,11.67,11.67,0,0,1,1.27,5.52,11.52,11.52,0,0,1-1.27,5.49,8.86,8.86,0,0,1-3.88,3.75,14.39,14.39,0,0,1-6.69,1.36h-9.57v-3.83h9.44a10.5,10.5,0,0,0,4.52-.82,5.27,5.27,0,0,0,2.5-2.33,7.83,7.83,0,0,0,.78-3.62,8.21,8.21,0,0,0-.79-3.68,5.38,5.38,0,0,0-2.51-2.43,10.25,10.25,0,0,0-4.57-.87h-7.46v31.26ZM493.32,429l8.62,15.73H497L488.53,429Z"/><path class="cls-6" d="M536.5,444.69v-35h11.84a13.59,13.59,0,0,1,6.74,1.48,9.4,9.4,0,0,1,3.89,4,13.12,13.12,0,0,1,0,11.24,9.42,9.42,0,0,1-3.87,4,13.39,13.39,0,0,1-6.71,1.5h-8.48v-3.76h8.35a9.11,9.11,0,0,0,4.53-1,5.87,5.87,0,0,0,2.49-2.64,9.59,9.59,0,0,0,0-7.53,5.7,5.7,0,0,0-2.51-2.61,9.54,9.54,0,0,0-4.58-.95h-7.46v31.26Z"/><path class="cls-6" d="M596,409.67H601l11.9,29.07h.41l11.9-29.07h5.06v35h-4V418.08H626l-10.94,26.61h-3.83l-10.94-26.61h-.35v26.61h-4Z"/><path class="cls-6" d="M357.15,278.22v69.59H348.6V287.05h-.42l-17.24,11.28v-8.56l17.66-11.55Z"/><path class="cls-6" d="M399.5,348.76a24.6,24.6,0,0,1-10.93-2.38,20.19,20.19,0,0,1-7.79-6.53,17.5,17.5,0,0,1-3.21-9.44h8.28a11,11,0,0,0,4.36,7.8,14.48,14.48,0,0,0,9.29,3.07,15,15,0,0,0,7.75-2,14.45,14.45,0,0,0,5.34-5.52,17.34,17.34,0,0,0-.07-16.11A15,15,0,0,0,407,312a15.9,15.9,0,0,0-8-2.11,23.14,23.14,0,0,0-6.66,1,19.06,19.06,0,0,0-5.62,2.57l-8-.95L383,278.22h36.69v7.47H390.12l-2.48,20.52h.41a18.72,18.72,0,0,1,5.45-2.82,21.17,21.17,0,0,1,6.83-1.12,22.18,22.18,0,0,1,11.57,3,21.8,21.8,0,0,1,8,8.31,24.35,24.35,0,0,1,2.92,12,23.32,23.32,0,0,1-3,11.88,22,22,0,0,1-8.29,8.22A23.77,23.77,0,0,1,399.5,348.76Z"/><path class="cls-6" d="M257.1,419.66v69.59h-8.55V428.49h-.42l-17.24,11.28v-8.56l17.66-11.55Z"/><path class="cls-6" d="M300.42,490.2a21.2,21.2,0,0,1-13.28-4.2q-5.49-4.19-8.38-12.19a57.17,57.17,0,0,1-2.9-19.36,56.36,56.36,0,0,1,2.92-19.28q2.91-8,8.41-12.23a22.79,22.79,0,0,1,26.45,0,26.26,26.26,0,0,1,8.42,12.23A56.62,56.62,0,0,1,325,454.45q0,11.35-2.89,19.36T313.7,486A21.22,21.22,0,0,1,300.42,490.2Zm0-7.47q7.72,0,12-7.34t4.28-20.94a53,53,0,0,0-1.95-15.39,21.19,21.19,0,0,0-5.59-9.68,12.5,12.5,0,0,0-8.74-3.33q-7.67,0-12,7.42t-4.31,21a53,53,0,0,0,1.93,15.36,20.86,20.86,0,0,0,5.57,9.62A12.61,12.61,0,0,0,300.42,482.73Z"/><path class="cls-6" d="M267.45,590.67v69.59H258.9V599.5h-.42l-17.24,11.28v-8.56l17.66-11.55Z"/><path class="cls-6" d="M309.8,661.21a24.47,24.47,0,0,1-10.93-2.38,20.27,20.27,0,0,1-7.8-6.52,17.73,17.73,0,0,1-3.21-9.45h8.28a11.05,11.05,0,0,0,4.37,7.8,14.48,14.48,0,0,0,9.29,3.07,14.88,14.88,0,0,0,7.74-2,14.41,14.41,0,0,0,5.35-5.52,17.34,17.34,0,0,0-.07-16.11,15,15,0,0,0-5.54-5.66,15.73,15.73,0,0,0-8-2.1,22.47,22.47,0,0,0-6.66,1,18.8,18.8,0,0,0-5.62,2.56l-8-1,4.28-34.25h36.69v7.47H300.42l-2.48,20.53h.41a18.59,18.59,0,0,1,5.45-2.82,20.86,20.86,0,0,1,6.83-1.12,22.09,22.09,0,0,1,11.57,3,21.66,21.66,0,0,1,8,8.31,24.45,24.45,0,0,1,2.92,12,23.32,23.32,0,0,1-3,11.88,21.91,21.91,0,0,1-8.3,8.22A23.76,23.76,0,0,1,309.8,661.21Z"/><path class="cls-6" d="M627.17,781V774.1l31.05-48.39h5.1v10.74h-3.45L636.42,773v.54h41.8V781Zm33.25,14.27V725.71h8.14V795.3Z"/><path class="cls-6" d="M714.23,796.25A21.23,21.23,0,0,1,701,792.06q-5.49-4.2-8.38-12.2a65.7,65.7,0,0,1,0-38.64q2.92-8,8.42-12.23a22.79,22.79,0,0,1,26.45,0,26.26,26.26,0,0,1,8.42,12.23,56.64,56.64,0,0,1,2.91,19.29q0,11.34-2.89,19.35t-8.38,12.2A21.27,21.27,0,0,1,714.23,796.25Zm0-7.47q7.72,0,12-7.34t4.28-20.93a53,53,0,0,0-2-15.4,21.24,21.24,0,0,0-5.59-9.68,12.5,12.5,0,0,0-8.74-3.33q-7.66,0-12,7.42t-4.31,21a52.94,52.94,0,0,0,1.93,15.35,20.86,20.86,0,0,0,5.57,9.62A12.6,12.6,0,0,0,714.23,788.78Z"/><path class="cls-6" d="M765.94,647.3A30.35,30.35,0,0,1,753.78,645a20.7,20.7,0,0,1-8.45-6.44,16.91,16.91,0,0,1-3.39-9.6h8.69a9.92,9.92,0,0,0,2.34,5.79,13.57,13.57,0,0,0,5.42,3.76,20,20,0,0,0,7.41,1.32,19.69,19.69,0,0,0,8.07-1.56,13.14,13.14,0,0,0,5.52-4.35,10.75,10.75,0,0,0,2-6.46,12,12,0,0,0-1.93-6.77,12.81,12.81,0,0,0-5.65-4.61,22.3,22.3,0,0,0-9.11-1.66H759v-7.48h5.66a17.36,17.36,0,0,0,7.4-1.49,12,12,0,0,0,5-4.22,11.22,11.22,0,0,0,1.81-6.39,11.64,11.64,0,0,0-1.59-6.15,10.82,10.82,0,0,0-4.46-4.08,14.86,14.86,0,0,0-6.78-1.46,18.16,18.16,0,0,0-6.88,1.31,13.05,13.05,0,0,0-5.26,3.77,9.84,9.84,0,0,0-2.21,5.93h-8.28a16.57,16.57,0,0,1,3.35-9.6,21.09,21.09,0,0,1,8.23-6.44,26.74,26.74,0,0,1,11.19-2.31,22.89,22.89,0,0,1,11.24,2.6,18.76,18.76,0,0,1,7.21,6.85,17.67,17.67,0,0,1,2.52,9.18,15.69,15.69,0,0,1-11.59,15.76v.55a16.46,16.46,0,0,1,10.45,5.59,16.75,16.75,0,0,1,3.76,11.12,17.44,17.44,0,0,1-3.12,10.18,21.45,21.45,0,0,1-8.5,7.09A28,28,0,0,1,765.94,647.3Z"/><path class="cls-6" d="M826,647.3A24.5,24.5,0,0,1,815,644.92a20.26,20.26,0,0,1-7.79-6.52A17.56,17.56,0,0,1,804,629h8.28a11,11,0,0,0,4.36,7.8,14.5,14.5,0,0,0,9.29,3.07,15,15,0,0,0,7.75-2A14.45,14.45,0,0,0,839,632.3a17.34,17.34,0,0,0-.07-16.11,15,15,0,0,0-5.53-5.66,15.79,15.79,0,0,0-8-2.1,22.78,22.78,0,0,0-6.66,1,19.06,19.06,0,0,0-5.62,2.57l-8-1,4.28-34.25h36.7v7.47H816.57l-2.48,20.53h.41a18.24,18.24,0,0,1,5.45-2.82,20.91,20.91,0,0,1,6.83-1.13,22.18,22.18,0,0,1,11.57,3,21.8,21.8,0,0,1,8,8.31,24.38,24.38,0,0,1,2.92,12,23.32,23.32,0,0,1-3,11.88,22,22,0,0,1-8.29,8.22A23.77,23.77,0,0,1,826,647.3Z"/><path class="cls-6" d="M755.38,482a30.28,30.28,0,0,1-12.16-2.31,20.54,20.54,0,0,1-8.45-6.44,16.91,16.91,0,0,1-3.4-9.59h8.69a10,10,0,0,0,2.35,5.79,13.41,13.41,0,0,0,5.41,3.75,21.51,21.51,0,0,0,15.49-.23,13.42,13.42,0,0,0,5.52-4.35,10.82,10.82,0,0,0,2-6.46,12.13,12.13,0,0,0-1.93-6.78,12.82,12.82,0,0,0-5.66-4.6,22.26,22.26,0,0,0-9.11-1.67h-5.65v-7.47h5.65a17.21,17.21,0,0,0,7.4-1.5,11.84,11.84,0,0,0,5-4.21,11.22,11.22,0,0,0,1.81-6.39,11.68,11.68,0,0,0-1.58-6.15,10.91,10.91,0,0,0-4.47-4.08,14.86,14.86,0,0,0-6.78-1.46,18.19,18.19,0,0,0-6.88,1.31,13.05,13.05,0,0,0-5.26,3.77,9.81,9.81,0,0,0-2.2,5.93h-8.28a16.51,16.51,0,0,1,3.34-9.6,21.15,21.15,0,0,1,8.23-6.44,26.74,26.74,0,0,1,11.19-2.31,22.93,22.93,0,0,1,11.25,2.6,18.65,18.65,0,0,1,7.2,6.85,17.66,17.66,0,0,1,2.52,9.17,16.22,16.22,0,0,1-3.12,10,16,16,0,0,1-8.47,5.74v.54a16.52,16.52,0,0,1,10.45,5.59,16.75,16.75,0,0,1,3.76,11.13,17.46,17.46,0,0,1-3.12,10.18,21.27,21.27,0,0,1-8.5,7.08A28,28,0,0,1,755.38,482Z"/><path class="cls-6" d="M816.35,482a21.21,21.21,0,0,1-13.28-4.19q-5.48-4.2-8.38-12.2t-2.89-19.35A56.68,56.68,0,0,1,794.71,427a26.26,26.26,0,0,1,8.42-12.23,22.79,22.79,0,0,1,26.45,0Q835.09,419,838,427a56.42,56.42,0,0,1,2.92,19.29,57.11,57.11,0,0,1-2.9,19.35q-2.89,8-8.38,12.2A21.17,21.17,0,0,1,816.35,482Zm0-7.47q7.73,0,12-7.34t4.27-20.93a53,53,0,0,0-2-15.4,21.32,21.32,0,0,0-5.58-9.68,12.51,12.51,0,0,0-8.75-3.33q-7.65,0-12,7.43t-4.31,21A53,53,0,0,0,802,461.65a20.81,20.81,0,0,0,5.56,9.61A12.63,12.63,0,0,0,816.35,474.56Z"/><path class="cls-6" d="M641.34,342.08V336l23.31-25.15q4.11-4.41,6.76-7.69a28.38,28.38,0,0,0,4-6.19,14.88,14.88,0,0,0,1.29-6.1,11.26,11.26,0,0,0-1.77-6.35,11.78,11.78,0,0,0-4.85-4.15,15.87,15.87,0,0,0-6.9-1.46,14.52,14.52,0,0,0-7.08,1.65,11.47,11.47,0,0,0-4.66,4.6,14.09,14.09,0,0,0-1.64,6.93h-8.14a19.53,19.53,0,0,1,10.68-17.94,23.68,23.68,0,0,1,11.12-2.58,22.82,22.82,0,0,1,11,2.58,19.69,19.69,0,0,1,7.52,7,18.06,18.06,0,0,1,2.73,9.75,20.81,20.81,0,0,1-1.4,7.49,33.25,33.25,0,0,1-4.83,8.13q-3.43,4.46-9.5,10.89l-15.87,16.71v.55H685.9v7.47Z"/><path class="cls-6" d="M722.18,343a24.6,24.6,0,0,1-10.93-2.37,20.22,20.22,0,0,1-7.8-6.53,17.67,17.67,0,0,1-3.21-9.44h8.28a11.07,11.07,0,0,0,4.36,7.79,14.53,14.53,0,0,0,9.3,3.08,14.88,14.88,0,0,0,7.74-2,14.27,14.27,0,0,0,5.35-5.52,16.14,16.14,0,0,0,2-8,16.34,16.34,0,0,0-2-8.13,14.91,14.91,0,0,0-5.54-5.66,15.83,15.83,0,0,0-8-2.11,22.8,22.8,0,0,0-6.66,1,18.69,18.69,0,0,0-5.62,2.57l-8-1,4.27-34.25h36.7V280H712.8l-2.48,20.52h.41a18.59,18.59,0,0,1,5.45-2.82,20.86,20.86,0,0,1,6.83-1.12,22.09,22.09,0,0,1,11.57,3,21.8,21.8,0,0,1,8,8.31,24.45,24.45,0,0,1,2.91,12,23.25,23.25,0,0,1-3,11.87,22.08,22.08,0,0,1-8.3,8.23A23.86,23.86,0,0,1,722.18,343Z"/><path class="cls-6" d="M483.36,283v-6.11l23.31-25.15q4.11-4.41,6.76-7.69a28.38,28.38,0,0,0,4-6.19,14.73,14.73,0,0,0,1.3-6.1,11.29,11.29,0,0,0-1.78-6.35,11.72,11.72,0,0,0-4.85-4.15,15.86,15.86,0,0,0-6.89-1.46,14.54,14.54,0,0,0-7.09,1.65,11.53,11.53,0,0,0-4.66,4.6,14.1,14.1,0,0,0-1.63,6.94h-8.15A19.53,19.53,0,0,1,494.31,215a23.7,23.7,0,0,1,11.12-2.58,22.89,22.89,0,0,1,11,2.58,19.66,19.66,0,0,1,7.51,7,18.06,18.06,0,0,1,2.73,9.75,20.81,20.81,0,0,1-1.4,7.49,33.25,33.25,0,0,1-4.83,8.13q-3.44,4.45-9.5,10.89L495.09,275v.55h32.83V283Z"/><path class="cls-6" d="M565.17,283.94a21.18,21.18,0,0,1-13.28-4.2q-5.49-4.2-8.38-12.2a57.11,57.11,0,0,1-2.9-19.35,56.42,56.42,0,0,1,2.92-19.29q2.91-8,8.41-12.23a22.79,22.79,0,0,1,26.45,0,26.26,26.26,0,0,1,8.42,12.23,56.68,56.68,0,0,1,2.91,19.29q0,11.34-2.89,19.35t-8.38,12.2A21.22,21.22,0,0,1,565.17,283.94Zm0-7.48q7.73,0,12-7.34t4.28-20.93a52.88,52.88,0,0,0-2-15.39,21.23,21.23,0,0,0-5.59-9.69,12.5,12.5,0,0,0-8.74-3.33q-7.67,0-12,7.43t-4.31,21a53.06,53.06,0,0,0,1.93,15.36q1.93,6.31,5.57,9.61A12.61,12.61,0,0,0,565.17,276.46Z"/><rect class="cls-7" x="369.74" y="635.45" width="341.78" height="51.52"/></g></g></svg>